<svg xmlns="http://www.w3.org/2000/svg" viewBox="0 0 32 32"><defs><style>.cls-1{fill:none;stroke:#000;stroke-miterlimit:10;stroke-width:1.2px;}</style></defs><g id="Layer_1" data-name="Layer 1"><path class="cls-1" d="M15.4,15.09,20.11,4.7a1,1,0,0,0-.58-1.36A14,14,0,1,0,28.71,17.6a1,1,0,0,0-1-1.1H16.31A1,1,0,0,1,15.4,15.09Z"/><path class="cls-1" d="M24.5,3.3,20,12.79a.5.5,0,0,0,.46.71l10.37-.09a.4.4,0,0,0,.4-.42,11.81,11.81,0,0,0-6.18-9.88A.41.41,0,0,0,24.5,3.3Z"/><circle cx="12.26" cy="6" r="1"/></g></svg>