<svg xmlns="http://www.w3.org/2000/svg" viewBox="0 0 520 600"><defs><style>.cls-1{fill:#fff;}.cls-2{fill:#ffba01;}.cls-3{fill:#fff5dc;}.cls-4{fill:#4a164c;}.cls-5{fill:none;stroke:#000;stroke-miterlimit:10;stroke-width:1.2px;}.cls-6{font-size:24px;font-family:PTMono-Bold, PT Mono;font-weight:700;}.cls-7{font-size:16px;font-family:Helvetica;}.cls-8{letter-spacing:-0.11em;}.cls-9{letter-spacing:-0.02em;}.cls-10{letter-spacing:-0.09em;}.cls-11{letter-spacing:-0.05em;}</style></defs><g id="Layer_3" data-name="Layer 3"><rect class="cls-1" x="10" y="16" width="499" height="571" rx="8"/><path class="cls-2" d="M310.59,436.6a27.16,27.16,0,0,1-.19-4.94c0-.37,0-.4,0-.11l.12-.58c0-.11.36-1.16.18-.71a7.76,7.76,0,0,1,.56-1c.2-.29.2-.29,0,0l.35-.39c.09-.09.9-.76.36-.37a10.07,10.07,0,0,1,.88-.56c.23-.13.46-.24.7-.35-.59.29.39-.14.52-.19a21.41,21.41,0,0,1,2.1-.51c.35-.05.36-.05,0,0,.18,0,.36,0,.54-.06l1.07-.07c.42,0,.85,0,1.27,0s.44,0,.19,0c.22,0,.44.08.65.14a3.42,3.42,0,0,1,1.37.89c.52.48,1.05,1,1.53,1.49l.39.45c-.17-.21-.15-.18.05.11s.19.34.27.51c-.12-.26-.13-.23,0,.11.05-.61-.11,1,0,.37a7.93,7.93,0,0,1-.36,1.29c-.3.89-.66,1.77-1,2.63a20.08,20.08,0,0,1-.94,2c-.22.36-.69.68,0,0a11.9,11.9,0,0,0,1.19-.37l1.52.41c-.8-.34,1.2,1.1,1.07,1.58,0,0,0-.07,0-.08a1.18,1.18,0,0,0,0-.42l.07-1.79.19-4.38c.05-1.31.25-2.76-.42-4a3.29,3.29,0,0,0-5.25-.6,7.79,7.79,0,0,0-1.19,1.76,53.75,53.75,0,0,0-2.81,5.76,10.17,10.17,0,0,0-1,3.53,3.88,3.88,0,0,0,3.66,4.15,4.16,4.16,0,0,0,4-2.94,15.22,15.22,0,0,0,.45-4.62c0-3-.85-6.12-3.14-8.15a4.12,4.12,0,0,0-2.76-1.19,3.38,3.38,0,0,0-3,2,21.59,21.59,0,0,0-1.41,4.05c-.26,1-.48,2.05-.65,3.08-.05.28-.09.55-.13.83,0,0,0,.08,0,.13-.12,1-.14,1.06-.05.33-.1.4,0,.33.15-.24l2.59-1.48h-.05l2.59,1.48c.21.38.43,1.52.15-.1,0-.06,0-.11,0-.16-.05-.27-.11-.53-.16-.8l-.48-2.52c-.32-1.68-.41-3.83-1.72-5.1a3.42,3.42,0,0,0-4.06-.57,4.53,4.53,0,0,0-1.92,2.52c-.21.54-.39,1.09-.58,1.64a36.7,36.7,0,0,0-1.87,8.27,3,3,0,0,0,3,3,3.08,3.08,0,0,0,3-3c0-.09.12-.93,0-.23,0-.26.09-.53.13-.79.09-.5.2-1,.32-1.48.23-1,.5-2,.8-2.92.21-.7.44-1.39.68-2.08.08-.21.16-.42.23-.63a.94.94,0,0,0,.06-.15,2,2,0,0,1-1.4,1.3h-1.6c-2.35-.58-1.49-2-1.41-1.07a6.42,6.42,0,0,0,.14.74l.44,2.33.45,2.33c0,.25.09.5.14.74a.71.71,0,0,0,0,.2c0,.18,0,0-.08-.44,0,.3.08.61.13.91a3.06,3.06,0,0,0,5.83.65,4.46,4.46,0,0,0,.31-1.08c.14-1.05.14-1.06,0,0V437l.12-.77c.17-1,.38-2,.63-3,.16-.61.33-1.22.52-1.82.1-.31.22-.6.32-.9s.13-.33,0,0a2.1,2.1,0,0,1,.22-.42l-1.08,1.07.17-.12-1.51.41.21,0-1.51-.41c-.37-.23-.07-.07.12.12s.44.55.17.15l.3.48s.32.7.21.42.12.39.14.45c.06.23.12.47.16.7.1.51,0-.68.05.37,0,.23,0,.46,0,.69,0,.58,0,1.16,0,1.73,0,.32-.29,1.38-.13,1.66-.14-.25.31-.76.44-.92q3.63,3.51,3.66,1.4c0-.17,0-.15,0,.06-.17.42.09-.2.12-.3s.15-.42.23-.63.13-.35.2-.52.24-.59.08-.2c.18-.44.38-.87.58-1.3.35-.74.73-1.47,1.11-2.2q.41-.76.84-1.53a2.16,2.16,0,0,0,.22-.39c.06-.18-.39.35-.45.38l-1.51.41h.11l-1.52-.41.1.06-1.08-1.08c-.58-1-.25-1.27-.26-.58,0,.14,0,.28,0,.42l-.07,1.61-.18,4.32a13.35,13.35,0,0,0,0,3,3.49,3.49,0,0,0,4.25,2.83,4.89,4.89,0,0,0,2.78-2.17,19.36,19.36,0,0,0,1.62-3.45,23.16,23.16,0,0,0,1.52-4.25c.64-3.2-.6-5.83-2.86-8a14.6,14.6,0,0,0-3.29-2.62,10.16,10.16,0,0,0-4.73-1,18.31,18.31,0,0,0-6.91,1.25,10.84,10.84,0,0,0-6.08,5.55c-1.27,2.91-1.15,6-.82,9.09a3.07,3.07,0,0,0,3,3c1.48-.06,3.19-1.33,3-3Z"/><path class="cls-2" d="M320.32,444c3.86,0,3.87-6,0-6s-3.87,6,0,6Z"/><path class="cls-2" d="M313.78,440.39a33.74,33.74,0,0,0-12.48,1.27,56,56,0,0,0-11.77,5.55l-8.13,4.7c-1.6.92-3.7,1.78-5,3.1a3.08,3.08,0,0,0-.46,3.63l0,0a2.89,2.89,0,0,0,2.59,1.49c2.32-.27,4.52-1.44,6.82-1.93a61.9,61.9,0,0,0,10.33-3c3.28-1.33,6.34-3,9.49-4.61,2.5-1.25,5.47-2.59,8.34-2.17a3.1,3.1,0,0,0,3.69-2.1c.39-1.41-.48-3.46-2.09-3.69a19.35,19.35,0,0,0-10.82,1.77c-3.15,1.38-6.08,3.19-9.22,4.59a48.38,48.38,0,0,1-10,3.15,44.9,44.9,0,0,0-4.7,1.19l-1.41.49c-.22.08-1.37.4-.41.29l2.59,1.49,0-.05-.47,3.64c-.58.57.05,0,.27-.12l.73-.42,2.94-1.7,7.66-4.42a51.94,51.94,0,0,1,10.24-5,29.1,29.1,0,0,1,11.32-1.19,3,3,0,0,0,3-3,3.06,3.06,0,0,0-3-3Z"/><path class="cls-2" d="M314.6,443.65c-3.87,1.63-7.23,4-10.87,6.08a25.7,25.7,0,0,1-2.57,1.29c.29-.12-.07,0-.17.06l-.74.27c-.45.15-.9.28-1.37.39-.25.07-.51.12-.77.17-.09,0-.78.13-.28.06-.61.08-1.22.14-1.82.25a6.13,6.13,0,0,0-3.2,1.67,3,3,0,0,0,4.24,4.25c.23-.23.26-.12.05-.05-.51.17.12,0,.22,0s.61-.12.32-.07.27,0,.33,0a20.09,20.09,0,0,0,3.27-.63,27,27,0,0,0,5.51-2.41c1.61-.9,3.16-1.9,4.73-2.87.83-.51,1.67-1,2.53-1.49.37-.21.76-.41,1.14-.61l.73-.35c.06,0,.65-.29.32-.15a3.1,3.1,0,0,0,2.09-3.69c-.39-1.41-2.19-2.73-3.69-2.1Z"/><path class="cls-2" d="M313.5,453.55c-.55.26-.83,0-.34.39.31.25.63.45,1,.72,1,.79,2.05,1.57,3.1,2.32a63,63,0,0,0,5.77,3.65c3.49,2,7.33,3.43,9.92,6.51a3,3,0,0,0,4.24,0,3.07,3.07,0,0,0,0-4.24c-3.2-3.82-8-5.6-12.21-8.07a61.74,61.74,0,0,1-6.36-4.25c-2.51-1.92-4.87-3.75-8.11-2.21a3,3,0,0,0,3,5.18Z"/><path class="cls-2" d="M316.08,449.55a42.77,42.77,0,0,1,4.13,2.67c.18.13.47.35.13.09l.52.41c.31.26.62.52.92.79.64.58,1.26,1.19,1.87,1.81,1.21,1.24,2.39,2.51,3.58,3.77a16.68,16.68,0,0,1,1.49,1.65c-.38-.54-.06-.05,0,.06s.2.33.29.5c.25.45,0-.08,0-.08s.19,1,.08.1a3.08,3.08,0,0,0,3,3c1.47-.07,3.2-1.33,3-3a8.1,8.1,0,0,0-1-3.35,14.06,14.06,0,0,0-1.84-2.37c-1.29-1.39-2.6-2.76-3.92-4.13a41.27,41.27,0,0,0-9.16-7.1,3,3,0,0,0-3,5.18Z"/><path class="cls-2" d="M356.85,368.2c-.21.31-.43.62-.65.92-.06.08-.74,1-.41.55-.43.55-.88,1.1-1.33,1.64s-1,1-1.41,1.59q4.15,3.62,3.86,1.34c0-.33-.08-.65-.14-1a5.44,5.44,0,0,0-.25-.81,6.44,6.44,0,0,0-1.4-2.38,3.64,3.64,0,0,0-5.22,0,69,69,0,0,0-6.29,6,33,33,0,0,0-5.26,8.83,3,3,0,0,0,2.09,3.69,3.08,3.08,0,0,0,3.69-2.09c.14-.34.15-.37.05-.11l.24-.54c.17-.36.34-.72.53-1.07.36-.71.76-1.39,1.18-2.07s.77-1.15,1.18-1.71c.21-.29.24-.32.07-.11l.38-.46c.25-.31.51-.61.77-.9a33.06,33.06,0,0,1,3.28-3.1c.62-.53,1.22-1.07,1.8-1.63.17-.16.35-.32.5-.49s.15,0-.23.19l-1.52.41a2.44,2.44,0,0,1-1.49-.62c-.26-.38-.3-.42-.12-.14a2.75,2.75,0,0,1,.2.38c-.15-.37-.17-.41-.07-.1.19,1,0-.53.08.23a4.46,4.46,0,0,0,.54,1.91c1.39,2.28,4.27,2.11,6,.35a42.32,42.32,0,0,0,4.53-5.72,3,3,0,0,0-1.08-4.1,3.07,3.07,0,0,0-4.1,1.08Z"/><path class="cls-2" d="M356.85,367.3a79.24,79.24,0,0,0-14,.46c-2.17.26-4.7.35-6.62,1.5a13.73,13.73,0,0,0-4.25,4.83,47.63,47.63,0,0,0-4.59,11.52,10.67,10.67,0,0,0-.61,3.39,9.3,9.3,0,0,0,1.2,3.72q1.49,3,3,6,3.66,7,7.7,13.86c2,3.33,7.15.31,5.18-3q-3.12-5.28-6-10.68c-1-1.84-2-3.68-2.89-5.54-.44-.85-.87-1.71-1.3-2.57a6.12,6.12,0,0,1-.92-2,8.47,8.47,0,0,1,.65-2.32c.25-.87.52-1.74.8-2.6a35.77,35.77,0,0,1,1.84-4.7,17.23,17.23,0,0,1,2.66-4.16c.92-1,2.49-1,3.89-1.16a78.23,78.23,0,0,1,14.27-.49,3,3,0,0,0,0-6Z"/><path class="cls-2" d="M340.68,372.23c-.07.21-.12.36,0,.07-.09.21-.21.42-.32.62l-.3.48s-.34.49-.18.27-.25.31-.3.36l-.37.44-.85,1c-1.23,1.43-2.4,2.92-3.51,4.45a39.82,39.82,0,0,0-5.08,9.55,3,3,0,0,0,2.09,3.69,3.07,3.07,0,0,0,3.69-2.09l.21-.56s.29-.73.18-.47.12-.27.14-.32.16-.36.25-.54c.37-.8.78-1.59,1.22-2.36a44.37,44.37,0,0,1,2.83-4.35l.36-.48c.09-.11.27-.35.07-.1l.84-1c.53-.64,1.07-1.27,1.62-1.9a15,15,0,0,0,3.19-5.11,3,3,0,0,0-2.09-3.69,3.07,3.07,0,0,0-3.69,2.1Z"/><path class="cls-2" d="M337.49,380.71c-1.61,5.68-3.42,11.13-2.64,17.1a68.72,68.72,0,0,0,1.79,8.41,16.06,16.06,0,0,0,3.61,7.23c2.67,2.81,6.91-1.44,4.24-4.24-1.32-1.39-1.74-3.36-2.21-5.17a52.06,52.06,0,0,1-1.55-7.17c-.58-5.06,1.19-9.77,2.55-14.56,1.05-3.73-4.74-5.31-5.79-1.6Z"/><path class="cls-2" d="M364.93,371.42c2.67.11,5,1.87,7.4,2.95s4.85,2.07,7.32,3c3.51,1.3,7.08,2.48,10.67,3.55a4.52,4.52,0,0,0,6.16-3.07l.1-.8c-.07.47-.09.62-.06.44l.12-.71.42-2.46a7.73,7.73,0,0,0,.21-3,4.22,4.22,0,0,0-3.28-3.29,14.89,14.89,0,0,0-3.83,0c-2.54.14-5.08.28-7.62.39l-4.15.17c-.62,0-1.25.05-1.88.06-.33,0-.71,0-1,0,.22,0,.15,0-.21-.08.54.39.62.41.26.05a3,3,0,0,0-4.25,4.24c1.92,2.12,4.87,1.83,7.46,1.73,2.31-.08,4.63-.19,6.94-.31l5.71-.3a6.27,6.27,0,0,0,1.3-.08s.16,0,.2,0c-.16.14-1.39-1.16-1.43-1.27-.49-1.18.06-.9-.06-.61a17,17,0,0,0-.64,3.73c-.26,1.65-.13.43.32-.14a2,2,0,0,1,1.29-.41,3,3,0,0,0-.93-.28c-3.53-1.07-7.05-2.24-10.51-3.52-2.38-.88-4.26-1.62-6.42-2.65-3.12-1.5-6-3.22-9.57-3.37a3,3,0,0,0,0,6Z"/><path class="cls-2" d="M384.55,376.35a14,14,0,0,1,2.67.1l-.79-.11a14.2,14.2,0,0,1,3.43.94l-.72-.3a7.75,7.75,0,0,0,3.05,1,3.68,3.68,0,0,0,3.56-2.7,3.15,3.15,0,0,0-.3-2.31,3,3,0,0,0-5.48.72l0,.09.3-.71a.54.54,0,0,1-.1.16l.47-.61-.07.07.6-.47a.62.62,0,0,1-.17.11l.71-.31a.66.66,0,0,1-.2.06l.8-.11h-.23l.8.1a1.66,1.66,0,0,1-.38-.11l.72.31a22.06,22.06,0,0,0-4.15-1.55,17,17,0,0,0-4.5-.38,3.19,3.19,0,0,0-2.12.88,3,3,0,0,0,2.12,5.12Z"/><path class="cls-2" d="M404.25,469.19c-4.34.46-8.67-.14-13-.12-5.27,0-10.64,1.08-15.08,4.05a51.09,51.09,0,0,0-10.09,9.45,130,130,0,0,0-8.76,11.36,110.84,110.84,0,0,0-6.77,11.21,31.67,31.67,0,0,0-3.26,9.17c-.49,2.89-.07,5.79,2.1,8a8.19,8.19,0,0,0,8,2,18.19,18.19,0,0,0,4.39-2.35c2.81-1.74,5.79-3.21,8.72-4.75l9.5-5c1.55-.81,3.08-1.73,4.69-2.43l-1.79.75.33-.09-2,.27.31,0-2-.27.27,0-1.79-.76-2.15-2.19-.75-1.79a9.13,9.13,0,0,0,7.56,7.48c2.91.39,5.15-.83,7.23-2.69s4.09-3.58,6.19-5.31q.95-.79,1.92-1.56c.31-.26.64-.49.95-.75.14-.12-1.47,1.11-.85.65l.65-.49a29.14,29.14,0,0,0,4.65-3.93,42.93,42.93,0,0,0,5.9-8.73c.39-.75.76-1.52,1.1-2.29a20.15,20.15,0,0,0,.87-2,8.37,8.37,0,0,0-1.87-8.33c-2.69-2.6-6.31-2.9-9.64-1.68a116.76,116.76,0,0,0-13.7,6c-6.53,3.41-13,7.74-17.13,14a7.56,7.56,0,0,0,2.69,10.26,7.69,7.69,0,0,0,10.27-2.69c.13-.21.28-.42.42-.62.64-1-1.31,1.59-.55.7.32-.38.63-.75,1-1.11a30.56,30.56,0,0,1,2.34-2.21c.54-.45,2.33-1.71.08-.11.45-.32.89-.65,1.34-1,.95-.67,1.93-1.31,2.93-1.92A89,89,0,0,1,401,491.5l-1.79.76a45.13,45.13,0,0,1,6.05-2.31l-2,.27.29,0-2-.27.24,0-1.79-.76-1.2-.94L396.87,485l.08.2-.27-2,0,.24.27-2a2,2,0,0,1-.15.6l.75-1.79a41.25,41.25,0,0,1-2.34,4.59c-.75,1.31-1.61,2.53-2.46,3.76,1.54-2.21,0-.09-.51.48-.29.3-.59.59-.9.86-1.23,1.09,1-.69.46-.33-3.07,2.15-6,4.61-8.83,7-1,.83-1.94,1.68-2.91,2.52-.29.27-.59.53-.89.79-.6.54-1.17.69.91-.68l1.79-.75-.22,0h4l-.21,0,1.79.76a4.77,4.77,0,0,1,1.55,1.41c.44.63.54.72.29.26l.76,1.79c-.67-1.79-1-3.34-2.51-4.75a8.68,8.68,0,0,0-8.45-2,16.39,16.39,0,0,0-3,1.34L369.07,501l-9.28,4.89c-2.76,1.46-5.37,3.12-8.07,4.67l1.79-.76-.26.1,2-.27-.23,0,2,.26-.2,0,1.8.76-.15-.1,2.69,2.69L361,513l.76,1.79-.06-.22.27,2v-.28l-.27,2a24.94,24.94,0,0,1,1.7-5.66l-.76,1.79a66.83,66.83,0,0,1,5-9,88.07,88.07,0,0,1,6.08-8.75l-.62.81.54-.69.84-1c.56-.69,1.13-1.37,1.7-2.05q1.72-2,3.52-3.93a40.87,40.87,0,0,1,3.49-3.35c1.27-1.06-.82.57-.2.15.34-.23.68-.48,1-.71a19.26,19.26,0,0,1,2.37-1.27l-1.79.75a18.94,18.94,0,0,1,4.62-1.26l-2,.27c5.64-.74,11.32.46,17-.14a8.16,8.16,0,0,0,5.3-2.2,7.5,7.5,0,0,0,0-10.61c-1.37-1.26-3.36-2.4-5.3-2.19Z"/><path class="cls-2" d="M415.3,479.61c.19-.19.39-.37.6-.55-1,.75-1.19.91-.58.47l.85-.55c.33-.2.68-.39,1-.56l-1.79.76A1.74,1.74,0,0,1,416,479l-2,.27h.29l-2-.26.26.08-1.79-.76-2.12-2.11-.76-1.79.1.3-.27-2a89.86,89.86,0,0,1,.34,9.14c.13,5.25.23,10.52,0,15.77l.27-2-.05.26,1.93-3.31-.17.16,9.09-1.17-.12-.06,3.45,4.48,0-.14-3.45,8.47.09,0c1.61-.68,3-2.9,3.45-4.49a7.68,7.68,0,0,0-.75-5.78,7.56,7.56,0,0,0-4.49-3.44,8.85,8.85,0,0,0-5.78.75l-.09,0a6.8,6.8,0,0,0-3.07,3.59,8.53,8.53,0,0,0-.38,4.88,7.26,7.26,0,0,0,3.59,4.69,7.72,7.72,0,0,0,9.09-1.17c3.13-3.08,2.51-8.29,2.51-12.37,0-2.94-.06-5.88-.13-8.81q-.09-3.39-.21-6.77a16,16,0,0,0-.88-5.87,8.52,8.52,0,0,0-5.69-5,9.76,9.76,0,0,0-6.73.92,20.16,20.16,0,0,0-4.91,3.53,7.56,7.56,0,0,0,0,10.6,7.65,7.65,0,0,0,10.61,0Z"/><path class="cls-2" d="M401.63,498.77a12.84,12.84,0,0,1,2.84.07l-2-.27a13.57,13.57,0,0,1,3.38.94l-1.79-.75a13.79,13.79,0,0,1,2.89,1.7l-1.52-1.18a13.17,13.17,0,0,1,1.59,1.49,5.73,5.73,0,0,0,2.42,1.55,5.59,5.59,0,0,0,2.88.64,7.65,7.65,0,0,0,5.31-2.19,7.56,7.56,0,0,0,2.19-5.31,8.09,8.09,0,0,0-2.19-5.3,20.27,20.27,0,0,0-8.1-5.24,13.18,13.18,0,0,0-2.91-.79,20.49,20.49,0,0,0-5-.36,7.72,7.72,0,0,0-7.5,7.5,7.57,7.57,0,0,0,2.2,5.3,7.38,7.38,0,0,0,5.3,2.2Z"/><path class="cls-2" d="M347,523.06q1.28,6.29,2.82,12.49a7.52,7.52,0,0,0,9.23,5.24,7.6,7.6,0,0,0,4.48-3.45,8,8,0,0,0,.76-5.78q-1.55-6.21-2.82-12.49a7.51,7.51,0,0,0-13.71-1.79l-.76,1.79a7.71,7.71,0,0,0,0,4Z"/><path class="cls-2" d="M415,504.63a8.24,8.24,0,0,0,.72,1.53,9.12,9.12,0,0,0,1.05,1.34,9,9,0,0,0,1.31,1.07,5,5,0,0,0,.85.47,3.28,3.28,0,0,0,2.31.3,2.27,2.27,0,0,0,1-.53A2.23,2.23,0,0,0,423,508l.3-.72a2.9,2.9,0,0,0,0-1.6l-.3-.71a3,3,0,0,0-1.07-1.08,4.66,4.66,0,0,1-1-.61l.61.47a4.83,4.83,0,0,1-.88-.87l.47.61a4.9,4.9,0,0,1-.62-1.06l.3.71,0-.07a2.27,2.27,0,0,0-.53-1,2.25,2.25,0,0,0-.85-.77,2.21,2.21,0,0,0-1.11-.36,2.33,2.33,0,0,0-1.2.05l-.71.31a2.92,2.92,0,0,0-1.08,1.07l-.3.72a2.87,2.87,0,0,0,0,1.59Z"/><path class="cls-2" d="M358.53,537.06a13.78,13.78,0,0,0,.72,7c.44,1.27,1.07,2.45,1.59,3.68l-.3-.72a2.14,2.14,0,0,1,.09.34l-.11-.8v.12l.1-.79v0l.3-.72,0,0,.47-.61,0,0,.61-.47,0,0,.72-.3-.09,0,.8-.1h-.06l.8.1-.22,0,.72.3a8.79,8.79,0,0,1-1.42-.91c-.91-.62-1.83-1.23-2.71-1.9l.61.47a10.52,10.52,0,0,1-1.92-1.85l.47.61a7.09,7.09,0,0,1-.84-1.46l.3.72a5.31,5.31,0,0,1-.33-1.21l.11.79,0-.28a3.19,3.19,0,0,0-.88-2.12,3,3,0,0,0-5.12,2.12,8.86,8.86,0,0,0,2.35,5.4,18.88,18.88,0,0,0,3.86,3.14,24.59,24.59,0,0,0,2.34,1.58,3.51,3.51,0,0,0,4.23-.4c1.22-1.23,1.05-2.87.38-4.3-.24-.53-.51-1-.74-1.58l.3.72a17.18,17.18,0,0,1-1.23-4.22l.11.8a8.68,8.68,0,0,1,0-2.1l-.11.8c0-.12,0-.23.05-.34a3.2,3.2,0,0,0-.3-2.31,3,3,0,0,0-4.1-1.08,2.9,2.9,0,0,0-1.38,1.8Z"/><path class="cls-2" d="M321.61,545.29l7.24,3.2,2.69,1.19.73.32.16.07c.89.33-.37.45-.6-1v-1.59l.88-1.17.42-.16a7.43,7.43,0,0,0-.77.33,5.12,5.12,0,0,0-.53.25,14.46,14.46,0,0,0-2.41,1.61c-1.63,1.3-3.17,2.72-4.77,4.06s-3.13,2.61-4.71,3.89l-2.54,2-1.2.94a5.73,5.73,0,0,0-.6.48c-.27.28-.08-.22.64-.17l1.51.41-.21-.14a3,3,0,1,0-3,5.18c2.32,1.44,4.3-.23,6.08-1.63,1.4-1.1,2.8-2.21,4.18-3.34,2.77-2.25,5.49-4.55,8.2-6.88a8,8,0,0,1,1.48-1c.46-.25,1.5-.71.29-.19a4.84,4.84,0,0,0,2.54-2,3.58,3.58,0,0,0-.09-3.54c-.89-1.51-3-2.1-4.52-2.77l-8-3.55a3.09,3.09,0,0,0-4.1,1.08c-.75,1.27-.42,3.44,1.07,4.1Z"/><path class="cls-2" d="M321.79,540.29a153.6,153.6,0,0,0-15.63,10.52c-2,1.51-4.15,3.81-6.54,4.58-1.24.4-2.71,0-4.07.31a4.89,4.89,0,0,0-3.53,3.37c-1.09,3.71,4.7,5.3,5.79,1.6-.3,1-1.56.8,0,.86a11.72,11.72,0,0,0,2.05-.08,10.78,10.78,0,0,0,3.84-1.37,66.86,66.86,0,0,0,6.59-4.93,153.26,153.26,0,0,1,14.52-9.68c3.32-2,.31-7.15-3-5.18Z"/><path class="cls-2" d="M302.31,550.82c-5,2.19-9.53,5.74-13.75,9.21q-2.56,2.1-5,4.32c-.47.42-.93.85-1.39,1.28s-1,.66.07.23h1.59l-.12,0,1.79,1.38-.05-.11.41,1.51,0,.29-2.1,2.09a147.2,147.2,0,0,0,21.64-9.29c5.66-3.15,11.08-6.75,16.69-10l3-1.7.84-.48c.22-.12,1-.48.21-.18L322.74,548v0l.47-3.63c.6-.54,0,0-.24.14l-1,.64-2.91,2a61.76,61.76,0,0,0-6.33,4.82c-1.63,1.43-3.2,2.93-4.72,4.47-1.09,1.1-2.71,2.43-2.58,4.11a3.12,3.12,0,0,0,2.2,2.9c1.71.53,3.54-.83,5-1.64l5.82-3.23,6.13-3.4,2-1.1c.18-.1.38-.19.55-.3s-.21,0,.13-.08h-1.52l-2.1-3.69,0,.07.78-1.32c-.12.13-.59.7,0,0l-.06.05c-.25.22-.54.41-.81.62l-1.14.9c-1.41,1.12-2.82,2.25-4.21,3.41A101.11,101.11,0,0,0,308,563.16a3.06,3.06,0,0,0,0,4.25,3,3,0,0,0,4.24,0,104.62,104.62,0,0,1,10.59-9.7c1.37-1.12,2.74-2.24,4.13-3.33.34-.26.68-.52,1-.79-.78.64-.48.4.12-.09a3.66,3.66,0,0,0,1.37-1.91,3,3,0,0,0-2.1-3.69c-1.86-.35-3.43.77-5,1.64l-5.82,3.23-6.14,3.4-2,1.09-.55.31c-.23.12-.86.26-.14.09h1.59l-.09,0,2.21,2.89v-.09l-.41,1.52c.19-.38-.12.06.06-.09a2.9,2.9,0,0,0,.34-.36l1.44-1.45c1.55-1.54,3.14-3,4.79-4.45a55.53,55.53,0,0,1,5.25-3.84,40.34,40.34,0,0,0,4.51-3.14,3,3,0,0,0,.47-3.64v0a3,3,0,0,0-3.39-1.38,28.65,28.65,0,0,0-3.67,1.95c-2.23,1.27-4.44,2.56-6.65,3.86-5.67,3.34-11.13,7-17.09,9.84-3.35,1.58-6.78,3-10.25,4.26-1.55.59-3.11,1.12-4.65,1.71a3.52,3.52,0,0,0-1.68,5.36c1.51,1.93,3.84,1.15,5.38-.23l.71-.67c1.34-1.25,2.71-2.46,4.1-3.65,4.44-3.8,9.06-7.59,14.61-10,1.49-.64,1.82-2.82,1.08-4.1a3.08,3.08,0,0,0-4.11-1.08Z"/><path class="cls-2" d="M285.25,574.13c.59-.11,1.19-.21,1.79-.3l.86-.14c.15,0,1-.14.55-.07,1.42-.19,2.85-.35,4.28-.48,2.9-.28,5.8-.47,8.7-.63q7.19-.37,14.37-.44c.83,0,1.67,0,2.5,0a6.15,6.15,0,0,0,4.95-2.77,13.28,13.28,0,0,0,1.15-2.81,8.81,8.81,0,0,0,.75-2.9,3.68,3.68,0,0,0-4.75-3.47,8,8,0,0,0-1.25.51s.75-.3.22-.09l-.75.3c-1.21.48-2.44.91-3.69,1.28-3.32,1-6.2.9-9.74,1.37-1.75.23-3.49.49-5.22.8l-1.39.26c-.71.14-.62-.08.25.12l1.32.77-.09-.08.88,2.12v-.13l-.4,1.51c-.08.14-.65.53-.43.4a5.25,5.25,0,0,0,.49-.33c.58-.39,1.18-.74,1.79-1.07a7.78,7.78,0,0,1,4.49-1.14,3,3,0,0,0,0-6c-3.15-.28-6.38,1.16-9,2.81a7.23,7.23,0,0,0-2.5,2.22,3.23,3.23,0,0,0,.43,3.85,3.87,3.87,0,0,0,3.65.87c2-.35,4.09-.77,6.16-1,2.86-.38,6.45-.37,9.54-1.15a43.07,43.07,0,0,0,4.71-1.52l1.43-.58c.32-.13.63-.29.95-.4l.11,0a1.85,1.85,0,0,1-1.27.21l-1.33-.77c-1.13-1-.35-2.56-.89-1-.21.59-.43,1.18-.63,1.77a2.14,2.14,0,0,0-.15.42s.18-.3.19-.38-.13.27-.22.22.43-.12.13-.11c-1.42,0-2.84,0-4.26,0-6.3.1-12.6.34-18.89.84a111.77,111.77,0,0,0-11.39,1.42,3,3,0,0,0-2.1,3.69,3.06,3.06,0,0,0,3.69,2.09Z"/><path class="cls-2" d="M344.93,559.49c-4.45-.22-8.91.12-12.19,3.48a5.53,5.53,0,0,1-1.85,1.42c-1.05.42-2.18.71-3.27,1q-3.54,1.05-7.14,1.87a3,3,0,0,0,1.59,5.79q3.49-.81,6.93-1.81c2.18-.65,4.56-1.21,6.39-2.61.84-.64,1.47-1.5,2.3-2.14a4.69,4.69,0,0,1,1.82-.81,19,19,0,0,1,5.42-.23,3,3,0,1,0,0-6Z"/><path class="cls-2" d="M321.29,573.19q10,0,20,0h6.37a6.22,6.22,0,0,0,2.42-.36c2.77-1.14,2.83-4.32,1.14-6.39-1.33-1.63-3.27-3.34-5.48-3.33a21.66,21.66,0,0,0-4.49.9L337,565a3,3,0,0,0,1.59,5.79l3.33-.77,1.9-.44a6.56,6.56,0,0,0,1.67-.39.39.39,0,0,0,.28-.08c-.58-.18-.65-.16-.22.09a5,5,0,0,0,.71.66c.2.2.38.45.6.64s.12.14-.31-.4c0-.25,0-.21,0,.09v-1.6c.47-3.42,2.57-1.27,1.59-1.4a4.69,4.69,0,0,0-.53,0H321.29c-3.86,0-3.87,6,0,6Z"/><path class="cls-2" d="M349.52,565.24l-.76-.76a2.22,2.22,0,0,0-1-.62,2.26,2.26,0,0,0-1.15-.26,2.32,2.32,0,0,0-1.16.26,2.25,2.25,0,0,0-1,.62l-.47.61a3,3,0,0,0-.41,1.51l.11.8a2.94,2.94,0,0,0,.77,1.32l.75.76a2.34,2.34,0,0,0,1,.62,2.7,2.7,0,0,0,2.31,0,2.34,2.34,0,0,0,1-.62l.47-.61a2.94,2.94,0,0,0,.4-1.51l-.1-.8a2.94,2.94,0,0,0-.77-1.32Z"/><path class="cls-3" d="M315.66,532.32c-10.38.34-20.9.21-31.22,1.4-9,1-19.85,2.39-27.87,6.77-5.65,3.09-.61,11.73,5.05,8.64,3.51-1.92,7.95-2.49,11.83-3.37a101.65,101.65,0,0,1,14.7-2.39c9.14-.71,18.35-.75,27.51-1,6.42-.21,6.44-10.21,0-10Z"/><path class="cls-3" d="M248.24,547.08Q246.47,558,245.34,569c-.35,3.44,3.46,5.44,6.33,4.82,4.24-.9,8.64-.28,13-.43a91.49,91.49,0,0,0,12.12-1.33c6.33-1.08,3.64-10.72-2.66-9.65-8.33,1.41-16.86,0-25.07,1.77l6.33,4.82q1-9.66,2.54-19.25c1-6.3-8.61-9-9.64-2.66Z"/><path class="cls-3" d="M278.13,570.14c5-5.54,11.89-10,17.82-14.52s13-6.9,19.67-9.85c5.88-2.59.79-11.21-5.05-8.63-7.12,3.15-14.47,5.84-20.68,10.62s-13.57,9.44-18.83,15.31c-4.28,4.78,2.76,11.88,7.07,7.07Z"/><path class="cls-3" d="M258,555.45q19.83-3,39.78-4.92c6.35-.6,6.42-10.61,0-10q-21.29,2-42.43,5.27c-6.35,1-3.65,10.61,2.65,9.65Z"/><path class="cls-3" d="M257,559.76q11.86-.79,23.74-.51c6.44.15,6.44-9.85,0-10q-11.88-.29-23.74.51c-6.39.43-6.43,10.43,0,10Z"/><path class="cls-3" d="M254.05,567.49h20.54c6.43,0,6.44-10,0-10H254.05c-6.44,0-6.45,10,0,10Z"/><path class="cls-3" d="M260.21,427.37a104.16,104.16,0,0,0,1.46,16.91,35.79,35.79,0,0,0,1.7,7.06,24.26,24.26,0,0,0,1.17,2.54c.59,1.09,1.13,2.95,1.61,1.26l4.82-3.68-.25,0L275,454l-.11-.18c-3.4-5.45-12.06-.44-8.64,5l.12.18a4.91,4.91,0,0,0,4.31,2.48l.25,0a5.2,5.2,0,0,0,4.82-3.67c1.25-4.49-2.59-7.91-3.66-12-1.57-5.95-1.88-12.32-1.92-18.44,0-6.43-10-6.44-10,0Z"/><path class="cls-3" d="M271.09,433.94l8.49-4.64L272.05,425c-.42,8.31,1.78,16.19,4.49,24,2.11,6,11.77,3.44,9.64-2.66-2.42-7-4.51-13.85-4.13-21.3.2-3.92-4.35-6-7.52-4.31L266,425.3c-5.65,3.09-.61,11.72,5,8.64Z"/><path class="cls-3" d="M266.65,433.7a45.38,45.38,0,0,0,.43,9.74c.44,2.94,1.67,5.73,2.12,8.62l.51-3.85-.22.3c-3.78,5.22,4.89,10.22,8.63,5.05,2-2.79-.06-6.34-.73-9.23a35.83,35.83,0,0,1-.74-10.63c.41-6.43-9.59-6.4-10,0Z"/><path class="cls-3" d="M365.57,467.55a87.54,87.54,0,0,0-7.42,9.72,5,5,0,1,0,8.63,5,71.55,71.55,0,0,1,5.86-7.69,5.11,5.11,0,0,0,0-7.07c-1.81-1.81-5.28-2-7.07,0Z"/><path class="cls-3" d="M360.4,468.19a26.29,26.29,0,0,1-7.78,4.37c-2.62,1.06-6.36,1.86-8.35,4s-2.61,6.42-1.66,9.2c1,3,4.41,3.12,5.57,5.9,1.42,3.38,7.22,5.66,9.14,1.2a20.34,20.34,0,0,1,5.3-7.46c4.81-4.3-2.28-11.35-7.07-7.07a26.85,26.85,0,0,0-6.86,9.48l9.13,1.19c-1.63-3.91-4-7-7.86-8.89l2.29,3c.08.54-2.31,1.1-.24.41.73-.24,1.45-.58,2.17-.87,1.67-.66,3.34-1.33,5-2.05a31.56,31.56,0,0,0,8.31-5.32c4.82-4.29-2.28-11.34-7.07-7.07Z"/><path class="cls-3" d="M318.67,528.66A14.93,14.93,0,0,0,319,532a5,5,0,0,0,6.15,3.49c.56-.19,2.8,2.29,3.28,2.65a10.33,10.33,0,0,0,4,1.83c3.52.76,7.47.27,11,.25,6.43,0,6.45-10,0-10-2.33,0-4.66,0-7,0s-1.92-.08-3.82-1.63c-2.87-2.34-6.5-4.07-10.19-2.77l6.15,3.49,0-.67c.19-6.43-9.81-6.43-10,0Z"/><path class="cls-3" d="M329.75,533c5.21-3.43,8.08-7.34,11.46-12.44s7.62-8.75,7.77-15.4c.13-5.89-8-6.46-9.82-1.33-3.35,9.46-8.43,23.18-1.54,32.22,2.82,3.7,9.3,2.87,9.32-2.53a58.92,58.92,0,0,1,.45-8l-9.82-1.32a38.39,38.39,0,0,0,3.92,17.13c2.76,5.81,11.38.74,8.64-5a26.83,26.83,0,0,1-2.56-12.08c0-5.45-9.05-7-9.82-1.33a78.45,78.45,0,0,0-.81,10.61l9.31-2.52c-4.94-6.48.17-17.78,2.55-24.51L339,505.16c-.09,4-4.31,7.16-6.4,10.35-2.36,3.61-4.19,6.43-7.88,8.86-5.34,3.53-.34,12.19,5.05,8.63Z"/><path class="cls-3" d="M349.71,493.91c-.56,2.37-2.54,4.78-4.08,6.61-2.06,2.45,1.46,6,3.54,3.54s4.59-5.57,5.36-8.83-4.08-4.46-4.82-1.32Z"/><path class="cls-3" d="M347.2,544.27a21.14,21.14,0,0,1,6.62,5.35c1.64,2,2,4,3.19,6.2,1,1.88,2.73,3.27,4,5a26.37,26.37,0,0,1,4.65,9.75c.66,3.15,5.48,1.82,4.82-1.33-1.51-7.17-7.15-11.54-9.79-17.92A23.48,23.48,0,0,0,349.72,540c-2.86-1.46-5.39,2.86-2.52,4.32Z"/><path class="cls-3" d="M362.19,555.35A78.46,78.46,0,0,1,368.72,571c.91,3.08,5.74,1.77,4.82-1.33a84.69,84.69,0,0,0-7-16.87c-1.55-2.82-5.87-.3-4.32,2.52Z"/><path class="cls-4" d="M17.89,17H146a0,0,0,0,1,0,0V585a0,0,0,0,1,0,0H18.4a8.4,8.4,0,0,1-8.4-8.4V24.89A7.89,7.89,0,0,1,17.89,17Z"/><rect class="cls-3" x="169" y="150" width="40" height="40" rx="8"/><rect class="cls-3" x="168" y="204" width="40" height="40" rx="8"/><rect class="cls-3" x="169" y="258" width="40" height="40" rx="8"/><rect class="cls-3" x="169" y="313" width="40" height="40" rx="8"/><rect class="cls-2" x="168" y="35" width="48" height="48" rx="8"/></g><g id="Layer_1" data-name="Layer 1"><path d="M501.5,584.7H21.74c-2.83,0-5.75.33-7.87-2.08-1.83-2.06-1.57-4.55-1.57-7V25.69c0-4.05,1.11-8.11,6.21-8.39,1.38-.08,2.79,0,4.18,0H498.52c3.49,0,7.15-.12,8.75,4,.64,1.65.43,3.66.43,5.4V568.1c0,5.48,1.85,16.22-6.2,16.6-2.31.11-2.32,3.71,0,3.6,6.5-.31,9.8-5.42,9.8-11.35V26.15c0-2.87.06-5.53-1.67-8.1C505.56,12,495.5,13.7,489.16,13.7h-467a33.34,33.34,0,0,0-5.29.15c-5.83,1-8.18,6.08-8.18,11.34V576c0,3.33.13,6.46,2.62,9.15,2.76,3,6.23,3.13,9.87,3.13H501.5A1.8,1.8,0,0,0,501.5,584.7Z"/><rect class="cls-1" x="24" y="39.5" width="67" height="13.43"/><rect class="cls-1" x="24" y="70.31" width="106" height="13.43"/><rect class="cls-1" x="24" y="101.13" width="106" height="13.43"/><rect class="cls-1" x="24" y="131.94" width="106" height="13.43"/><rect class="cls-1" x="24" y="162.75" width="106" height="13.43"/><rect class="cls-1" x="24" y="193.57" width="106" height="13.43"/><path d="M250.8,369.13H419.54a1.8,1.8,0,0,0,0-3.6H250.8a1.8,1.8,0,0,0,0,3.6Z"/><path d="M364.18,373A97.74,97.74,0,0,0,390,382c2.26.43,3.23-3,1-3.47a94,94,0,0,1-25-8.57c-2.06-1.05-3.88,2-1.82,3.11Z"/><path d="M398.09,380.72l1.36-7.33a6.68,6.68,0,0,0,0-3.86,3.3,3.3,0,0,0-3.16-2.13,1.85,1.85,0,0,0-1.8,1.8,1.83,1.83,0,0,0,1.8,1.8c.22,0,.2,0,0,0s-.21-.11,0,0l-.13-.09c.14.15.14.15,0,0,.1.18.1.18,0,0l.05.18c0-.16,0-.13,0,.1s0,.25,0,.38c0,.35,0-.07-.05.3,0,.2-.07.41-.11.62l-.28,1.51-1.09,5.82a1.8,1.8,0,0,0,3.48,1Z"/><path d="M244.73,368v205a1.8,1.8,0,0,0,3.6,0V368a1.8,1.8,0,0,0-3.6,0Z"/><path d="M250.09,574.88H421a1.8,1.8,0,0,0,0-3.6H250.09a1.8,1.8,0,0,0,0,3.6Z"/><path d="M421.3,365.9V573.08a1.8,1.8,0,0,0,3.6,0V365.9a1.8,1.8,0,0,0-3.6,0Z"/><path d="M284.25,447.87a45.09,45.09,0,0,0-21.75,32.57c-1.87,14.06,3.26,30.12,14.65,39.07,6.21,4.88,13.9,6.3,21.56,7.12s15.6,1.25,23-1.12c13.25-4.23,21.09-17.27,22.9-30.51s-1.85-27.33-10.87-37.29a37.46,37.46,0,0,0-3.5-3.4c-1.75-1.5-4.31,1-2.54,2.55,9.49,8.12,14.14,20.67,13.75,33-.36,11.73-5.62,24.5-16.35,30.33-6.28,3.41-13.66,3.75-20.65,3.32s-14.55-1-20.87-4.15c-6.05-3-10.49-8.57-13.49-14.53a41.76,41.76,0,0,1-4.38-19.26A41.34,41.34,0,0,1,286.06,451c2-1.17.19-4.29-1.81-3.11Z"/><path d="M311.17,452.29l-22.91,7.36,2.28,1.74c0-.4,0,0-.09,0a4.84,4.84,0,0,0,.48-.4c.54-.38,1.16-.65,1.72-1,1.2-.78,2.33-1.95,2.13-3.51-.13-1-1.06-2.2-2.28-1.73A49.16,49.16,0,0,1,272.45,458c-2.32-.12-2.31,3.48,0,3.6a51.76,51.76,0,0,0,21-3.38l-2.28-1.74c0,.28.22,0,0,.17.1-.09-.19.12-.27.17-.56.35-1.16.66-1.72,1a4.07,4.07,0,0,0-2.27,3.53,1.82,1.82,0,0,0,2.27,1.74l22.91-7.37c2.2-.7,1.26-4.18-.95-3.47Z"/><path d="M317.8,458.62a43.79,43.79,0,0,0,18.7,12.68,1.8,1.8,0,1,0,1-3.47,40.26,40.26,0,0,1-17.12-11.76,1.82,1.82,0,0,0-2.54,0,1.84,1.84,0,0,0,0,2.55Z"/><path d="M280.9,471.32a5.68,5.68,0,0,0-2.11-.55A5.32,5.32,0,0,0,277,471a5.39,5.39,0,0,0-3,2.37,1.89,1.89,0,0,0-.18,1.38,1.8,1.8,0,0,0,3.29.43,4,4,0,0,1,.23-.34l-.28.36a4,4,0,0,1,.58-.59l-.36.29a3.39,3.39,0,0,1,.82-.48l-.43.18a4.06,4.06,0,0,1,1-.27l-.48.07a3.32,3.32,0,0,1,.89,0l-.48-.07a3.64,3.64,0,0,1,.86.23l-.43-.18.11.05a1.89,1.89,0,0,0,1.38.18,1.8,1.8,0,0,0,.43-3.29Z"/><path d="M327.37,476.12a5.62,5.62,0,0,1,.82,0l-.48-.06a4.31,4.31,0,0,1,1.05.29l-.43-.19a4.71,4.71,0,0,1,.95.55l-.37-.28a4.32,4.32,0,0,1,.74.74l-.28-.37,0,.05a1.38,1.38,0,0,0,.46.5,1.32,1.32,0,0,0,.62.32,1.8,1.8,0,0,0,1.38-.18,1.79,1.79,0,0,0,.65-2.46,6,6,0,0,0-2.23-1.92,6.14,6.14,0,0,0-2.91-.62,1.87,1.87,0,0,0-1.27.53,1.79,1.79,0,0,0-.53,1.27,1.81,1.81,0,0,0,.53,1.28,1.76,1.76,0,0,0,1.27.52Z"/><path d="M286.66,484.78v-.1l-.06.48a.19.19,0,0,1,0-.08l-.18.43a.2.2,0,0,1,0-.08l-.28.36.09-.09-.36.28.12-.07-.43.18.12,0-.47.06h.11l-.48-.06.09,0-.43-.18.07,0-.36-.28,0,0-.47-.79a1.88,1.88,0,0,1,.12.48l-.06-.48a2.66,2.66,0,0,1,0,.69l.06-.48c0,.12,0,.25-.08.37l1.73-1.32h-.06l.48.06-.18-.05.43.18a.87.87,0,0,1-.18-.11l.37.29a.85.85,0,0,1-.16-.17l.28.37a1.06,1.06,0,0,1-.12-.2l.18.43a2.17,2.17,0,0,1-.07-.24l.07.48a.74.74,0,0,1,0-.21l-.07.48a.6.6,0,0,1,.06-.19l-.19.43h0a1.48,1.48,0,0,0,.22-.67,1.36,1.36,0,0,0,0-.72,1.29,1.29,0,0,0-.32-.61,1.41,1.41,0,0,0-.5-.47l-.43-.18a2,2,0,0,0-1,0l-.43.18a1.84,1.84,0,0,0-.65.65,4.71,4.71,0,0,0-.21.52l0,.1a3,3,0,0,0-.06.68,2.78,2.78,0,0,0,.37,1.28,2.89,2.89,0,0,0,.91.93l.09.05a4.55,4.55,0,0,0,.51.21,2.25,2.25,0,0,0,.68.11l.48-.06a1.34,1.34,0,0,0,.61-.33.85.85,0,0,0,.33-.32,1.49,1.49,0,0,0,.32-.61,3.59,3.59,0,0,0,.08-.35,7.08,7.08,0,0,0,.09-.79c0-.12,0-.24,0-.36a5.34,5.34,0,0,0-.13-.8.94.94,0,0,0,0-.16l0,0-.09-.21a.84.84,0,0,0-.23-.4,1.42,1.42,0,0,0-.18-.22l-.37-.29h0l-.26-.11a1.08,1.08,0,0,0-.3-.11,4.79,4.79,0,0,0-.51-.07h-.05a4.34,4.34,0,0,0-.52.07h-.06l-.05,0a4.47,4.47,0,0,0-.46.19l-.09.05a2.25,2.25,0,0,0-.44.36,3,3,0,0,0-.31.4l0,0v0c-.05.1-.15.35-.19.45s0,0,0,.06-.06.4-.07.49v0s0,0,0,.07a1.37,1.37,0,0,0,.15.69,1.4,1.4,0,0,0,.38.58,1.32,1.32,0,0,0,.58.37,1.35,1.35,0,0,0,.69.16l.48-.07a1.76,1.76,0,0,0,.79-.46l.28-.37a1.7,1.7,0,0,0,.25-.9Z"/><path d="M322.58,487.47a.24.24,0,0,1,0-.08l.06.48v-.06l-.06.48a.07.07,0,0,1,0-.05l-.18.43a.05.05,0,0,1,0,0l-.28.36.05-.05-.37.29.06,0-.43.18.14,0-.48.06h.16l-.47-.06a.61.61,0,0,1,.18.05l-.43-.18.11.06-.36-.28.07.07-.28-.36a.56.56,0,0,1,.05.08l-.18-.43s0,0,0,.08l-.07-.48a.33.33,0,0,1,0,.14l.06-.48a.85.85,0,0,1,0,.17l.18-.43a.78.78,0,0,1-.11.18l.28-.36-.19.19.36-.28a2.46,2.46,0,0,1-.45.25l.43-.18-.27.1,2,.83,0,0,.19.43a1.25,1.25,0,0,1-.11-.39l.07.48a1.61,1.61,0,0,1,0-.49l-.07.48a2,2,0,0,1,.14-.47l-.19.43a1.72,1.72,0,0,1,.22-.37l-.28.36a2.13,2.13,0,0,1,.3-.3l-.36.28a.18.18,0,0,1,.07-.05,1.33,1.33,0,0,0,.5-.47,1.34,1.34,0,0,0,.33-.61,1.47,1.47,0,0,0,0-.72,1.27,1.27,0,0,0-.22-.67,1.77,1.77,0,0,0-1.07-.82,1.74,1.74,0,0,0-1.39.18,3,3,0,0,0-1.05,1.05,1.48,1.48,0,0,0-.16.27,4.65,4.65,0,0,0-.28.7,4,4,0,0,0-.13.76c0,.11,0,.21,0,.32a4.82,4.82,0,0,0,.1.75,4.87,4.87,0,0,0,.28.72l.28.36a1.23,1.23,0,0,0,.58.37.9.9,0,0,0,.45.13,1.36,1.36,0,0,0,.72,0,6.38,6.38,0,0,0,.82-.33,4.41,4.41,0,0,0,.72-.5,1,1,0,0,0,.14-.15,4.23,4.23,0,0,0,.33-.41l.06-.1c.08-.16.14-.33.21-.49l0-.1a1.77,1.77,0,0,0,.05-.32,3.31,3.31,0,0,0,0-.33s0,0,0,0,0-.38-.06-.49,0,0,0-.06-.15-.38-.18-.44l0,0c-.05-.08-.12-.16-.17-.23a1.89,1.89,0,0,0-.69-.6,2.61,2.61,0,0,0-1.14-.3h-.12l-.52.07-.07,0h0a3.57,3.57,0,0,0-.45.19l-.23.17a1.6,1.6,0,0,0-.52.57v0a3.57,3.57,0,0,0-.19.45v0a4.29,4.29,0,0,0-.07.5v0a3.86,3.86,0,0,0,.06.49l0,.09a1.33,1.33,0,0,0,.32.61,1.31,1.31,0,0,0,.5.46,1.35,1.35,0,0,0,.67.21,1.26,1.26,0,0,0,.72,0,1.8,1.8,0,0,0,1.26-2.21Z"/><path d="M296.79,496.17a8.59,8.59,0,0,0,9.09,2.09,1.91,1.91,0,0,0,1.07-.82,1.8,1.8,0,0,0-2-2.65,5.67,5.67,0,0,1-.91.29l-.41.08c-.37.07.33,0,.11,0l-.22,0a7.53,7.53,0,0,1-.95,0l-.21,0c-.3,0,0,0,.11,0-.16,0-.32-.05-.47-.09a6.22,6.22,0,0,1-.87-.25c-.07,0-.36-.15-.08,0s0,0,0,0l-.43-.22a4.36,4.36,0,0,1-.41-.24c-.07-.05-.43-.32-.2-.14s0,0-.07-.05l-.16-.14c-.13-.12-.26-.25-.38-.38a1.83,1.83,0,0,0-2.55,0,1.85,1.85,0,0,0,0,2.55Z"/><path d="M282.1,505.31c11,7.53,24.8,6.93,37.49,6.11l-1.28-3.07a19.32,19.32,0,0,1-25.87-1.61c-1.62-1.65-4.17.89-2.55,2.55a22.68,22.68,0,0,0,31,1.6c1.2-1,.22-3.17-1.27-3.07-12.06.78-25.21,1.55-35.67-5.61-1.92-1.32-3.72,1.8-1.82,3.1Z"/><path d="M263.39,484.24a3.29,3.29,0,0,0-2.23-.85,3.78,3.78,0,0,0-2,.63,4.26,4.26,0,0,0-1.77,4,9.66,9.66,0,0,0,4.32,6.78,1.81,1.81,0,0,0,2.46-.64,1.85,1.85,0,0,0-.64-2.47,3.21,3.21,0,0,0-.3-.21c.15.05.24.2,0,0l-.5-.45c-.14-.15-.29-.3-.42-.45a2.2,2.2,0,0,0-.24-.28c.13.07.19.25,0,0a8.28,8.28,0,0,1-.67-1.1c-.06-.11-.11-.22-.16-.33-.14-.3.09.24,0,0s-.16-.43-.22-.65-.05-.21-.07-.31c-.06-.28,0-.14,0,0a5.3,5.3,0,0,0,0-.69c0-.22-.09.37,0,0a3.21,3.21,0,0,0,.1-.35c0,.07-.16.36,0,0s0,.06-.08.09l.21-.21c0,.09-.37.23-.09.08a1.14,1.14,0,0,0,.22-.12c-.26.1-.33.13-.2.09l.14,0c.29-.1-.34,0-.15,0a1,1,0,0,0,.24,0c-.31-.06-.39-.06-.25,0l.13,0-.25-.11c.15.1.11.06-.13-.12a1.94,1.94,0,0,0,1.27.53,1.83,1.83,0,0,0,1.27-.53,1.81,1.81,0,0,0,0-2.54Z"/><path d="M343.36,491.62a4.91,4.91,0,0,1,.76.17c.13,0,.48.07.06,0a1.11,1.11,0,0,1,.29.14,2.35,2.35,0,0,1,.6.38c-.29-.32,0,0,0,.05l.28.28.26.3-.12-.16a1.64,1.64,0,0,1,.14.22,6.37,6.37,0,0,1,.35.63c.09.19-.1-.33,0,0,0,.13.08.25.11.38a2.32,2.32,0,0,0,.07.38c0-.24,0-.3,0-.16s0,.13,0,.2,0,.26,0,.39c0,.34.06-.24,0,0s-.1.46-.17.69l-.09.25.08-.19a2.28,2.28,0,0,0-.18.35c-.06.11-.13.22-.2.33l-.08.11c-.11.16-.1.14.05,0a1.9,1.9,0,0,1-.5.52,1.26,1.26,0,0,1-.24.22c.38-.2,0,0-.06,0a3.79,3.79,0,0,1-.34.2l-.17.09.13-.06a2,2,0,0,1-.75.22,1.82,1.82,0,0,0-1.26,2.22,1.85,1.85,0,0,0,2.22,1.25,6.53,6.53,0,0,0-.32-12.82,2,2,0,0,0-1.38.18,1.8,1.8,0,0,0,.43,3.29Z"/><path d="M294,526a8.93,8.93,0,0,1,0,2.31l.06-.48a8.61,8.61,0,0,1-.61,2.22l.19-.43c-.09.19-.17.38-.27.57a1.89,1.89,0,0,0-.18,1.38,1.87,1.87,0,0,0,.83,1.08,1.82,1.82,0,0,0,2.46-.65,10.49,10.49,0,0,0,1.13-6,1.92,1.92,0,0,0-.53-1.27,1.79,1.79,0,0,0-2.54,0A1.71,1.71,0,0,0,294,526Z"/><path d="M309.84,526.27l-.35,6.78,1.8-1.8a52.1,52.1,0,0,1-15.36-.88,1.84,1.84,0,0,0-2.21,1.26,1.81,1.81,0,0,0,1.26,2.21,55.48,55.48,0,0,0,16.31,1,1.85,1.85,0,0,0,1.8-1.8l.35-6.78a1.81,1.81,0,0,0-1.8-1.8,1.85,1.85,0,0,0-1.8,1.8Z"/><path d="M293.69,530.53c-8.24-.27-16.5-.31-24.48,2-7.55,2.22-14.53,6-21.43,9.68-2,1.1-.22,4.21,1.82,3.11,6.63-3.57,13.31-7.19,20.57-9.32,7.68-2.25,15.59-2.17,23.52-1.91,2.31.07,2.31-3.53,0-3.6Z"/><path d="M292.54,446.93c5.65-3.13,12.3-5,18.79-4.05a20.47,20.47,0,0,1,14.06,8.53c1.27,1.93,4.39.13,3.11-1.81a23.88,23.88,0,0,0-16.22-10.19c-7.48-1.18-15,.78-21.55,4.41-2,1.13-.22,4.24,1.81,3.11Z"/><path d="M305.5,438.63a57.18,57.18,0,0,1,0-7.52c.12-1.65.09-4,1.29-5.26a5.7,5.7,0,0,1,2.4-1.28c1.15-.41,2.32-.78,3.5-1.08a17.39,17.39,0,0,1,6.77-.55c3.54.55,7,2.92,7.3,6.73a15.37,15.37,0,0,1-1.13,6.35c-.41,1.17-1.18,3.4-2.68,3.5-2.3.15-2.32,3.75,0,3.6,4.26-.28,5.93-4.84,6.84-8.38,1.08-4.17.74-8.67-2.47-11.82a14.3,14.3,0,0,0-11.08-3.65,30.12,30.12,0,0,0-7.14,1.53c-1.92.64-3.93,1.32-5.23,3-1.45,1.82-1.69,4.17-1.89,6.41a56.9,56.9,0,0,0-.11,8.46c.13,2.3,3.73,2.32,3.6,0Z"/><path d="M307.28,434.65a18.69,18.69,0,0,0,16.34-5.72c1.56-1.7-1-4.26-2.55-2.54a15,15,0,0,1-12.83,4.79,1.85,1.85,0,0,0-2.21,1.25,1.81,1.81,0,0,0,1.25,2.22Z"/><path d="M338.93,389.85a211.94,211.94,0,0,0,7.7,33.17q2.58,8.13,5.82,16c1.08,2.63,2.2,5.24,3.38,7.82a66,66,0,0,0,3.52,7.22c1.32,2.15,3.25,3.69,5.87,3.68a19.69,19.69,0,0,0,3.9-.62l4.86-1.05,9-1.94c2.79-.61,5.65-1.09,8.41-1.85,2.18-.61,4.23-1.76,5.12-4a12.28,12.28,0,0,0,.61-3.9q.12-2.46.21-4.92.33-9.11.21-18.22a365.46,365.46,0,0,0-2.87-40.75,1.87,1.87,0,0,0-1.8-1.8,1.81,1.81,0,0,0-1.8,1.8q2.16,17.1,2.72,34.35.27,8.49.14,17-.06,4.31-.23,8.61c-.06,1.31-.11,2.62-.18,3.94-.06,1.14,0,2.55-.92,3.39-1.55,1.39-4.52,1.53-6.45,1.95l-8.26,1.79-8.5,1.83c-2.2.48-4.91,1.61-6.53-.53a35.87,35.87,0,0,1-3.33-6.57c-1.13-2.43-2.22-4.89-3.25-7.37q-3-7.33-5.53-14.89a212,212,0,0,1-8.34-35.14,1.8,1.8,0,1,0-3.47,1Z"/><path d="M365.05,406l.12,18.32a1.82,1.82,0,0,0,2.71,1.56,31,31,0,0,1,7.44-3.83,1.85,1.85,0,0,0,1.25-2.22,1.81,1.81,0,0,0-2.21-1.25,34.61,34.61,0,0,0-8.3,4.19l2.71,1.55L368.65,406c0-2.31-3.62-2.32-3.6,0Z"/><path d="M367.25,439l10.19-5.48,5.09-2.74,2.55-1.37a8,8,0,0,1,1-.53,2,2,0,0,1,.42-.13c-.12,0-.15,0-.08.08l-.64-2.46c-1.22,2.75-2.8,5.49-5.51,7-1.74,1-4.91,2.87-6.5.84a1.8,1.8,0,0,0-2.54,0,1.84,1.84,0,0,0,0,2.54c2.56,3.29,7,1.71,10.06.15,3.64-1.86,6-5,7.6-8.71a1.88,1.88,0,0,0-.65-2.46c-1.7-1.29-3.76-.08-5.34.77l-5.82,3.14-11.65,6.26c-2,1.1-.23,4.21,1.82,3.11Z"/><path d="M354.84,400.12a3,3,0,0,1-.2-.4l.18.43a4.85,4.85,0,0,1-.31-1.13l.07.48a4.53,4.53,0,0,1,0-1.22l-.06.47a5.12,5.12,0,0,1,.1-.54l-3,.79a3.73,3.73,0,0,1,.32.36l-.28-.37a3.45,3.45,0,0,1,.39.67l-.18-.43a3.47,3.47,0,0,1,.22.84l-.06-.48a3.75,3.75,0,0,1,0,.82l.06-.48a3.2,3.2,0,0,1-.15.61,1.8,1.8,0,0,0,1.26,2.21,1.82,1.82,0,0,0,1.39-.18,2,2,0,0,0,.82-1.08,4.41,4.41,0,0,0,.24-1.35,4.81,4.81,0,0,0-.15-1.36,4.73,4.73,0,0,0-1.34-2.33,1.85,1.85,0,0,0-1.75-.46,1.82,1.82,0,0,0-1.26,1.26,6.43,6.43,0,0,0,.59,4.69,1.85,1.85,0,0,0,1.07.83,1.8,1.8,0,0,0,2.22-1.26,2,2,0,0,0-.18-1.39Z"/><path d="M379.37,395.09,379.3,393l-.53,1.28.12-.12-.36.28a.57.57,0,0,1,.13-.08l-.43.18a.73.73,0,0,1,.2-.05l-.47.06h.24l-.48-.06a1.38,1.38,0,0,1,.27.08l-.43-.18a1.12,1.12,0,0,1,.28.16l-.36-.29a1.2,1.2,0,0,1,.22.23l-.28-.36a.71.71,0,0,1,.13.22l-.18-.43a1.56,1.56,0,0,1,.1.37l-.07-.48a2.1,2.1,0,0,1,0,.56l.06-.47a5.74,5.74,0,0,1-.29,1.08,1.92,1.92,0,0,0,.18,1.39,1.23,1.23,0,0,0,.46.5,1.29,1.29,0,0,0,.61.32,1.78,1.78,0,0,0,1.39-.18l.36-.28a1.78,1.78,0,0,0,.47-.79c.08-.24.17-.49.23-.74s.05-.23.07-.35a7,7,0,0,0,.08-.8,4.25,4.25,0,0,0-.09-.79,3.85,3.85,0,0,0-.27-.74,2.6,2.6,0,0,0-.55-.73,3.25,3.25,0,0,0-1.16-.69.81.81,0,0,0-.22-.07,3.09,3.09,0,0,0-.68-.09l-.33,0-.33.05a2.62,2.62,0,0,0-.62.26,4.35,4.35,0,0,0-.43.32.6.6,0,0,1-.08.08l0,0-.28.37a1.21,1.21,0,0,0-.22.66,2.23,2.23,0,0,0,0,.44l.06,1.86a1.9,1.9,0,0,0,.53,1.28,2,2,0,0,0,1.27.52,1.78,1.78,0,0,0,1.8-1.8Z"/><path d="M350.42,384.72a11.08,11.08,0,0,0-4.81,4.93,1.93,1.93,0,0,0-.18,1.39,1.83,1.83,0,0,0,.83,1.08,1.8,1.8,0,0,0,1.38.18,1.78,1.78,0,0,0,1.08-.83,9.82,9.82,0,0,1,1-1.67l-.28.37a10,10,0,0,1,1.72-1.72l-.36.28a9.47,9.47,0,0,1,1.42-.9,1.82,1.82,0,0,0,.65-2.46,1.85,1.85,0,0,0-2.47-.65Z"/><path d="M375.6,382.9l5,.46a1.8,1.8,0,0,0,1.28-3.07,2.07,2.07,0,0,0-1.28-.53l-5-.46a1.81,1.81,0,0,0-1.28.53,1.82,1.82,0,0,0,0,2.55,2,2,0,0,0,1.28.52Z"/><path d="M361.82,370.2a64.37,64.37,0,0,1-9.62,10.31l2.82.37a7.64,7.64,0,0,1-1.32-4.08,1.81,1.81,0,0,0-2.7-1.55,24.18,24.18,0,0,0-9.23,11.53A1.81,1.81,0,0,0,343,389a1.83,1.83,0,0,0,2.21-1.25,20.15,20.15,0,0,1,7.57-9.38l-2.71-1.56a11.18,11.18,0,0,0,1.81,5.89,1.84,1.84,0,0,0,2.83.37,68.36,68.36,0,0,0,10.19-11,1.82,1.82,0,0,0-.65-2.47,1.84,1.84,0,0,0-2.46.65Z"/><path d="M344.14,412.53a3.32,3.32,0,0,0-3.65.25,4.44,4.44,0,0,0-1.63,3.46,17.14,17.14,0,0,0,1.18,6.6,20.59,20.59,0,0,0,8.49,10.42c2,1.21,3.79-1.9,1.82-3.11a16.82,16.82,0,0,1-6.29-7,16.58,16.58,0,0,1-1.42-4.46,11.29,11.29,0,0,1-.18-2.17s.14-1,.2-.93-.32.06-.34.05c2,1.14,3.83-2,1.82-3.11Z"/><path d="M398.46,405.64c.16-.36-.07.06-.2.12l-.2.07c-.09,0-.21-.1-.19-.14l.27.67a5.14,5.14,0,0,1,.11.8,28.12,28.12,0,0,1,0,5.19,26,26,0,0,1-.95,4.77,8.8,8.8,0,0,1-.73,2c-.11.2-.27.36-.38.54a.54.54,0,0,1-.17.1c-.07-.08.79.14.15-.12a1.81,1.81,0,0,0-2.21,1.26,1.84,1.84,0,0,0,1.26,2.21c2.68,1.08,4.51-1.87,5.22-4a29.8,29.8,0,0,0,1.48-7.72,28.65,28.65,0,0,0,0-3.93,8,8,0,0,0-.78-3.4,3.5,3.5,0,0,0-2.85-1.82,2.94,2.94,0,0,0-2.9,1.58,1.87,1.87,0,0,0,.65,2.46,1.8,1.8,0,0,0,2.46-.65Z"/><path d="M332.87,369.2q-3.12,6.17-6.22,12.35c-1.83,3.67-3.6,7.77-2,11.85a27.65,27.65,0,0,0,3.16,5.24l3.87,5.67,7.73,11.33c1.3,1.9,4.42.1,3.11-1.82l-7.18-10.52c-2.28-3.35-4.9-6.63-6.86-10.18s0-7.31,1.7-10.64L336,371c1-2.06-2.06-3.89-3.1-1.81Z"/><path d="M360.17,518.91c-.52,4.45.46,8.87,1.55,13.17s2.26,8.65,3.45,13q3.58,13.07,7.61,26c.69,2.2,4.16,1.26,3.47-1q-3.94-12.71-7.48-25.53-1.75-6.36-3.39-12.74c-1.1-4.24-2.13-8.5-1.61-12.91a1.81,1.81,0,0,0-1.8-1.8,1.85,1.85,0,0,0-1.8,1.8Z"/><path d="M400.22,499.57Q390,508,379.36,515.89L382,517a7.18,7.18,0,0,1,.13-5.24c.71-1.83-1.8-2.8-3-1.75a72.61,72.61,0,0,1-22.35,13.1c-2.16.79-1.23,4.27,1,3.47a77,77,0,0,0,23.93-14l-3-1.75a10.37,10.37,0,0,0-.12,7.16,1.82,1.82,0,0,0,2.65,1.07q11-8.11,21.58-16.88c1.79-1.48-.77-4-2.54-2.55Z"/><path d="M405.9,500.18a33.83,33.83,0,0,0,12.7,10.58,1.86,1.86,0,0,0,2.46-.65,1.81,1.81,0,0,0-.65-2.46,33.31,33.31,0,0,1-3.37-1.84,29.58,29.58,0,0,1-2.91-2.09,30,30,0,0,1-2.74-2.55c-.46-.47-.9-1-1.32-1.46s-.71-.86-1.06-1.34a1.86,1.86,0,0,0-2.47-.65,1.81,1.81,0,0,0-.64,2.46Z"/><path d="M381.85,530.17a8.57,8.57,0,0,0-4.44,5.19,1.82,1.82,0,0,0,1.25,2.22,1.85,1.85,0,0,0,2.22-1.26,5.71,5.71,0,0,1,.21-.58l-.18.43a6.6,6.6,0,0,1,.87-1.5l-.28.37a6.59,6.59,0,0,1,1.26-1.27l-.36.28a7.17,7.17,0,0,1,1.27-.77,1.78,1.78,0,0,0,.83-1.07,1.8,1.8,0,0,0-1.26-2.22l-.48-.06a1.85,1.85,0,0,0-.91.24Z"/><path d="M389.26,550.36l-.32-1-3.29,1.39h0l-.18-.43a1.33,1.33,0,0,1,.1.34l-.06-.47a.65.65,0,0,1,0,.14l.07-.48,0,.11.18-.43a.16.16,0,0,1,0,.07l.28-.36,0,0,.37-.28-.06,0,.43-.18-.09,0,.48-.06H387l.48.06-.07,0,.43.18a.05.05,0,0,1-.05,0l.36.28,0,0,.28.36,0,0,.19.43,0,0,.07.48v-.05l-.07-.48-.18-.43a1.41,1.41,0,0,0-.29-.38l.28.37,0-.06.18.43s0,0,0,0l.07.47v-.06l-.07.48,0-.09-.18.43a.35.35,0,0,1,.05-.08l-.28.36.07-.06-.37.28.07,0-.43.19.07,0-.48.06h.06l-.48-.06h.05l-.43-.18.06,0-.37-.28,0,0-.28-.37,0,.05-.18-.43a.64.64,0,0,1,0,.07l-.07-.48a.11.11,0,0,1,0,.08l.07-.47,0,.1.18-.43a.41.41,0,0,1-.05.09l.28-.37-.05.06.36-.28-.06,0,.43-.18h-.06l.48-.06H387l.48.06h0a1.26,1.26,0,0,0-.72,0,1.35,1.35,0,0,0-.67.21,1.38,1.38,0,0,0-.5.46,1.32,1.32,0,0,0-.32.62l-.07.47a1.8,1.8,0,0,0,.25.91l.28.37a1.76,1.76,0,0,0,.79.46,2.1,2.1,0,0,0,.56.07,2.07,2.07,0,0,0,1-.26l0,0h0a3.37,3.37,0,0,0,.37-.29l0,0,0,0h0l.28-.37a.43.43,0,0,0,0-.07,2.1,2.1,0,0,0,.21-.51s0,0,0,0a3.86,3.86,0,0,0,.06-.49v-.05c0-.09,0-.24,0-.26a2.42,2.42,0,0,0,0-.26,2,2,0,0,0-.53-.92,1.72,1.72,0,0,0-.43-.32,4.41,4.41,0,0,0-.46-.19l-.26,0-.26,0-.28,0-.28,0a2.24,2.24,0,0,0-.5.22,2.21,2.21,0,0,0-.76.76l0,.05c-.05.11-.13.31-.18.44v0s0,0,0,0-.05.36-.06.48v0l0,.25,0,.25s0,0,0,.05l.09.22.09.22,0,0v0l.28.37,0,0-.53-1.28a1.87,1.87,0,0,0,.27,1,2.1,2.1,0,0,0,.68.68,2.61,2.61,0,0,0,.48.2l.07,0a3.25,3.25,0,0,0,.55.07,2.17,2.17,0,0,0,1-.27,2.1,2.1,0,0,0,.75-.73,2.25,2.25,0,0,0,.3-1.11.4.4,0,0,0,0-.11,4.6,4.6,0,0,0-.09-.6,4.46,4.46,0,0,0-.27-.67,1.93,1.93,0,0,0-1.08-.83l-.47-.06a1.41,1.41,0,0,0-.7.15,1,1,0,0,0-.4.23,1.41,1.41,0,0,0-.46.51l-.18.43a1.74,1.74,0,0,0,0,1l.32,1a1.33,1.33,0,0,0,.32.61,1.44,1.44,0,0,0,.51.47,1.32,1.32,0,0,0,.67.21,1.43,1.43,0,0,0,.71,0l.43-.18a1.84,1.84,0,0,0,.65-.65l.18-.43a1.74,1.74,0,0,0,0-1Z"/><path d="M420.36,538.48v0l.18.43a.86.86,0,0,1-.06-.23l.06.48a1.13,1.13,0,0,1,0-.26l-.06.48a.77.77,0,0,1,.07-.26l-.18.43a.72.72,0,0,1,.12-.21l-.28.36.09-.1h-2.55l.09.11-.28-.37a2.3,2.3,0,0,1,.25.43l-.18-.43a1.91,1.91,0,0,1,.14.52l-.06-.48c0,.11,0,.21,0,.32l1.32-1.74-.08,0,.48-.06h-.14l.47.06a.42.42,0,0,1-.15,0l.43.19-.15-.09.36.28-.11-.11.28.36-.08-.13.18.43,0-.12.06.48v-.06a1.26,1.26,0,0,0-.16-.69,1.29,1.29,0,0,0-.37-.58,1.23,1.23,0,0,0-.58-.37,1.35,1.35,0,0,0-.69-.16l-.48.07a1.76,1.76,0,0,0-.79.46l-.29.36a1.85,1.85,0,0,0-.24.91v0c0,.15,0,.34.07.49a.19.19,0,0,0,0,.08v0a3.57,3.57,0,0,0,.19.45l0,.06a.43.43,0,0,0,0,.07,4,4,0,0,0,.32.4l.05,0a4.12,4.12,0,0,0,.41.32l.13.07a3.45,3.45,0,0,0,.48.2l.07,0h0l.49.06h.12a4.13,4.13,0,0,0,.49-.07l.08,0,.43-.18a1.33,1.33,0,0,0,.51-.46,1,1,0,0,0,.23-.4,1.34,1.34,0,0,0,.15-.69,4.69,4.69,0,0,0-.08-.84,2.36,2.36,0,0,0-.1-.38c-.08-.2-.16-.4-.25-.59l-.09-.17-.11-.16a6.12,6.12,0,0,0-.39-.5,1.4,1.4,0,0,0-.58-.38,1.34,1.34,0,0,0-.69-.15l-.48.06a1.81,1.81,0,0,0-.8.47,4.14,4.14,0,0,0-.37.46l-.09.14,0,.07c-.07.16-.14.32-.2.48a1.09,1.09,0,0,0-.05.17c0,.17-.05.36-.07.53a.19.19,0,0,1,0,.08.81.81,0,0,0,0,.16c0,.18,0,.36.07.54s0,.05,0,.08l0,.07c.06.17.13.33.2.5a1.41,1.41,0,0,0,.47.5,1.29,1.29,0,0,0,.61.32,1.92,1.92,0,0,0,1.39-.18l.36-.28a1.76,1.76,0,0,0,.46-.79l.07-.48a1.71,1.71,0,0,0-.25-.91Z"/><path d="M401.06,546.61a50.42,50.42,0,0,1,3.62,24.61,1.81,1.81,0,0,0,1.8,1.8,1.83,1.83,0,0,0,1.8-1.8,52.76,52.76,0,0,0-3.75-25.57,1.87,1.87,0,0,0-2.22-1.25,1.79,1.79,0,0,0-1.25,2.21Z"/><path d="M342.81,549a17.45,17.45,0,0,0-5.49-.18,9.26,9.26,0,0,0-4.64,2.59c-1.41,1.3-2.79,2.61-4.18,3.92a33.23,33.23,0,0,0-3.51,3.51,7.18,7.18,0,0,0-1.83,4.65,4.29,4.29,0,0,0,2.71,4c3.36,1.18,6.92-1.43,9-3.8,1-1.14,2-2.62,3.6-3a9.39,9.39,0,0,1,2.54,0,15.75,15.75,0,0,0,3.22-.09,1.8,1.8,0,0,0,1.25-2.21,1.84,1.84,0,0,0-2.21-1.26,38.73,38.73,0,0,1-4-.1,7.2,7.2,0,0,0-4.09,1.3c-2,1.48-3.27,3.85-5.49,5.1-.55.32-2.18,1.12-2.75.53s.25-2.13.63-2.66a20.79,20.79,0,0,1,2.71-2.76l3.41-3.2c1.09-1,2.22-2.41,3.68-2.9a10.05,10.05,0,0,1,4.5,0,1.88,1.88,0,0,0,2.22-1.26,1.82,1.82,0,0,0-1.26-2.22Z"/><path d="M340.12,546.39a49.26,49.26,0,0,0-12.86-8.54,8.75,8.75,0,0,0-3.38-1.11,5.55,5.55,0,0,0-3.58,1.64c-1.88,1.56-3.47,3.44-5.23,5.13a17.57,17.57,0,0,1-6.17,3.88c-2.33.86-4.71,1.52-7,2.48a51,51,0,0,0-12.62,7.89,129.89,129.89,0,0,0-12.11,11.82c-1.58,1.69,1,4.24,2.55,2.54,6.29-6.74,12.84-13.61,21.16-17.84,4.19-2.12,9-2.84,13-5.29a27.1,27.1,0,0,0,5.13-4.37c.76-.78,1.51-1.57,2.29-2.33.61-.59,1.72-2,2.63-1.93a6.46,6.46,0,0,1,1.87.78c.58.27,1.16.55,1.73.85,1.22.62,2.4,1.29,3.55,2a45.3,45.3,0,0,1,6.45,4.93c1.71,1.56,4.26-1,2.55-2.55Z"/><path d="M345.28,561.18l3.11,5.77c.51.94,1,1.87,1.53,2.82,0,.06.27.54.21.38a2.4,2.4,0,0,1,.12.38v0a.89.89,0,0,1,0,.23c0-.23,0-.24,0,0a.51.51,0,0,1,.17-.28c.19-.12.19-.13,0,0a1.8,1.8,0,0,0,1.82,3.11,3.3,3.3,0,0,0,1.61-3.26,11.61,11.61,0,0,0-1.67-3.9l-3.77-7a1.8,1.8,0,1,0-3.11,1.82Z"/><path d="M318.51,546.29a16.06,16.06,0,0,1,1.54.46c.27.09.54.2.8.3s-.38-.17.12.05l.31.14a18.22,18.22,0,0,1,2.87,1.65c.21.14.42.29.62.45l.1.08.33.27c.41.35.81.72,1.19,1.1s.74.78,1.08,1.19l.27.33c.19.24-.24-.33.08.11l.49.69a1.8,1.8,0,1,0,3.11-1.82,20.77,20.77,0,0,0-11.95-8.47,1.82,1.82,0,0,0-2.22,1.25,1.84,1.84,0,0,0,1.26,2.22Z"/><path d="M336.18,562.27a58.69,58.69,0,0,1,4.92,8.43,1.82,1.82,0,0,0,2.46.65,1.84,1.84,0,0,0,.65-2.46,59.19,59.19,0,0,0-4.92-8.44,1.84,1.84,0,0,0-2.47-.64,1.82,1.82,0,0,0-.64,2.46Z"/><path d="M336.79,542.87c3.68-.25,7.28,1.26,10.4,3.1,2.66,1.59,5.3,3.77,6.48,6.73.63,1.58.51,3.2.79,4.85a10.06,10.06,0,0,0,2.62,4.65,25.16,25.16,0,0,1,5.26,9.48c.65,2.22,4.12,1.27,3.47-1a28.38,28.38,0,0,0-5.78-10.6,11.39,11.39,0,0,1-1.69-2.23,6.69,6.69,0,0,1-.49-2.69,13,13,0,0,0-1.51-5.23,19.53,19.53,0,0,0-7.66-7.29c-3.56-2-7.73-3.7-11.89-3.41-2.3.15-2.32,3.75,0,3.6Z"/><path d="M399.86,468.42l-13.46-.69c-4.08-.22-8.6-1.06-12,1.8a39,39,0,0,0-4.08,4.44c-1.37,1.58-2.72,3.19-4.06,4.81q-4.06,5-7.89,10.09c-2.52,3.39-5,6.82-7.29,10.34a38.24,38.24,0,0,0-5.22,10.63c-1.17,4.25-.74,8.48-.06,12.76a97.24,97.24,0,0,0,2.42,12.09c2.28,7.86,7,15.35,14.94,18.35,2.17.81,3.1-2.67.95-3.48-6.15-2.31-10-8.33-11.95-14.31a72.68,72.68,0,0,1-2.49-11.1c-.64-3.9-1.48-8-.69-11.91a29.8,29.8,0,0,1,4.27-9.75c2-3.27,4.3-6.42,6.57-9.55q6.93-9.51,14.73-18.36c1.31-1.48,2.57-3.14,4.65-3.45a33.23,33.23,0,0,1,6.46.16l14.19.73c2.31.12,2.31-3.48,0-3.6Z"/><path d="M405.54,470.77A11,11,0,0,1,419,468c2,1.09,3.87-2,1.82-3.11A14.67,14.67,0,0,0,403,468.22a1.86,1.86,0,0,0,0,2.55,1.83,1.83,0,0,0,2.55,0Z"/><path d="M371.7,455.7v11.67a1.8,1.8,0,0,0,3.6,0V455.7a1.8,1.8,0,1,0-3.6,0Z"/><path d="M384.38,452.55a141.22,141.22,0,0,0-.17,14.55,1.8,1.8,0,1,0,3.6,0,141.22,141.22,0,0,1,.17-14.55,1.81,1.81,0,0,0-1.8-1.8,1.84,1.84,0,0,0-1.8,1.8Z"/><path d="M314.62,535.24a32.09,32.09,0,0,1,11.8,4,1.8,1.8,0,1,0,1.82-3.11,36.32,36.32,0,0,0-13.62-4.46,1.81,1.81,0,0,0-1.8,1.8,1.85,1.85,0,0,0,1.8,1.8Z"/><path d="M370.63,464.75c-2.4-.27-4.88-.37-7.09.74a12.3,12.3,0,0,0-2.78,2.36s-.45.37-.29.26c-.07.05-.71.36-.39.23-.51.22-1.05.39-1.55.64a3.14,3.14,0,0,0-1.86,2.75c0,1.56,1.34,2.7,2.29,3.78l5.73,6.51a1.8,1.8,0,1,0,2.54-2.54l-5-5.67-1.11-1.26c-.16-.18-1-1-1-1.15-.07.22.16.42,0,.69s-.38.29-.11.15c.05,0,.63-.31.32-.18l.49-.19a7.27,7.27,0,0,0,2.58-1.62,7.19,7.19,0,0,1,1.9-1.65c1.41-.69,3.51-.44,5.27-.25a1.81,1.81,0,0,0,1.8-1.8,1.85,1.85,0,0,0-1.8-1.8Z"/><path d="M345.45,477.63a39.85,39.85,0,0,0,8.06-1.89,1.8,1.8,0,1,0-.95-3.47,36.9,36.9,0,0,1-3.68,1.09c-.61.15-1.22.28-1.84.4l-.93.16-.43.07c-.08,0-.72.11-.23,0a2,2,0,0,0-1.28.53,1.78,1.78,0,0,0-.52,1.27c0,.87.8,1.93,1.8,1.8Z"/><path d="M260.56,424.52c5.29.87,10.81.92,15.69-1.6a12.59,12.59,0,0,0,5.35-4.68,2.71,2.71,0,0,0-.73-3.62,2.36,2.36,0,0,0-3.35.8c-1,2.07,2.08,3.89,3.1,1.81l.08-.15-.64.65-1.44-.35-.25-.91c.06.43-.82,1.11-1.14,1.41a10.27,10.27,0,0,1-1.51,1.19,14,14,0,0,1-3.92,1.76,23.65,23.65,0,0,1-10.29.21,1.86,1.86,0,0,0-2.21,1.26,1.82,1.82,0,0,0,1.26,2.22Z"/><path d="M278.5,418.45c.47,4.72,1.95,9.3,3.16,13.87l3.83,14.45c.59,2.24,4.06,1.29,3.47-1l-3.7-14c-1.17-4.39-2.71-8.86-3.16-13.4-.24-2.28-3.84-2.3-3.6,0Z"/><path d="M258.51,424.92c-.17,6.28,1.22,12.45,2.9,18.46,1.73,6.21,3.56,12.4,5.35,18.6.64,2.22,4.11,1.28,3.47-1-1.74-6-3.52-12.08-5.22-18.14-1.65-5.87-3.07-11.82-2.9-18,.06-2.32-3.54-2.32-3.6,0Z"/><path d="M277.61,417.51c-1.35-3.52,0-7.13,1.14-10.52a57.05,57.05,0,0,0,2.86-11.37,5.09,5.09,0,0,0-1.41-4.75,3.36,3.36,0,0,0-4.4-.05c-1.29,1.09-1.77,2.87-2.37,4.38l-2.29,5.68a1.8,1.8,0,1,0,3.47,1l1.76-4.37.88-2.19a4.8,4.8,0,0,1,.77-1.65c.06-.05-.2-.1-.11,0a1,1,0,0,1,.19.47,6.32,6.32,0,0,1-.2,2.16c-.27,1.6-.62,3.19-1,4.76-1.48,5.58-5,11.61-2.72,17.45.83,2.13,4.31,1.21,3.47-1Z"/><path d="M273.54,400.64a63.37,63.37,0,0,0-5.27-22.89,4.71,4.71,0,0,0-3.16-2.85c-1.89-.35-3.13,1.18-3.29,2.91a42.16,42.16,0,0,0,1,12.21l3.47-1a26.85,26.85,0,0,0-8.22-11.82c-1.09-.89-3.19-.43-3.07,1.28a39.14,39.14,0,0,0,3.67,14.12l2.82-2.18a76.34,76.34,0,0,1-7.77-8,1.81,1.81,0,0,0-3,.79c-1.49,6,4.27,9.74,5.07,15.2l3-1.75a14.29,14.29,0,0,0-7-3.77,1.83,1.83,0,0,0-2.22,2.22,53.43,53.43,0,0,0,14.08,26.48c1.62,1.66,4.16-.88,2.54-2.54a50,50,0,0,1-13.15-24.9l-2.21,2.21a10.8,10.8,0,0,1,5.43,2.85c1.39,1.35,3.26-.07,3-1.76-.39-2.58-1.81-4.82-3.13-7-1.13-1.87-2.51-4-1.95-6.27l-3,.8a76.43,76.43,0,0,0,7.78,8,1.81,1.81,0,0,0,2.83-2.18,34.48,34.48,0,0,1-3.18-12.31l-3.07,1.27A23.43,23.43,0,0,1,262.84,390a1.8,1.8,0,0,0,3.47-1,44.3,44.3,0,0,1-.95-9.26c0-.39.26-1.53,0-1.82-.36.49-.7.63-1,.42-.1-.07,0,0,.23.22.08.16.22.29.31.45a24.87,24.87,0,0,1,1.63,4.12,61.83,61.83,0,0,1,3.38,17.45c.11,2.3,3.71,2.32,3.6,0Z"/><path d="M208.28,82.09H177c-3.54,0-6.79-1.81-7.73-5.43a21.42,21.42,0,0,1-.23-5.25V44c0-3,.83-5.83,3.64-7.45,1.93-1.11,4-1,6.12-1h27.65c2.57,0,5,.15,7,2.12s2.12,4.4,2.12,7V72.32c0,2.12.15,4.2-1,6.13a7.36,7.36,0,0,1-6.29,3.64.75.75,0,0,0,0,1.5A8.89,8.89,0,0,0,217,74.82c0-1.69,0-3.39,0-5.08V48.41c0-1.84,0-3.67,0-5.51a8.85,8.85,0,0,0-7.72-8.75,43.74,43.74,0,0,0-5.12-.06H194c-5.82,0-11.63,0-17.45,0A8.93,8.93,0,0,0,168,40c-.66,1.88-.48,4-.48,6V74.13a9.18,9.18,0,0,0,4.24,8.21c2.12,1.28,4.39,1.25,6.75,1.25h29.76A.75.75,0,0,0,208.28,82.09Z"/><path class="cls-5" d="M191.68,57.42,196.39,47a1,1,0,0,0-.57-1.36,14.2,14.2,0,0,0-6.63-.72,14,14,0,1,0,15.8,15,1,1,0,0,0-1-1.1H192.59A1,1,0,0,1,191.68,57.42Z"/><path class="cls-5" d="M200.79,45.63l-4.49,9.49a.5.5,0,0,0,.45.72l10.37-.09a.42.42,0,0,0,.41-.42,11.82,11.82,0,0,0-6.19-9.88A.4.4,0,0,0,200.79,45.63Z"/><circle cx="188.54" cy="48.34" r="1"/><text class="cls-6" transform="translate(233.29 77.2)">Pizza</text><path d="M200.5,351.75c-7.95,0-15.91.11-23.86,0A7.36,7.36,0,0,1,169.4,346a20.81,20.81,0,0,1-.15-4.18V326.07c0-1.73,0-3.45,0-5.17a7.46,7.46,0,0,1,4.22-7,11.58,11.58,0,0,1,5.09-.66h21.21a7.72,7.72,0,0,1,6.58,3c1.28,1.74,1.4,3.68,1.4,5.74v21.41c0,2.22-.32,4.31-1.9,6a7.35,7.35,0,0,1-5.35,2.36.75.75,0,0,0,0,1.5,8.87,8.87,0,0,0,8.47-6.53,19.5,19.5,0,0,0,.28-4.83V325.23c0-1.56,0-3.12,0-4.68a8.87,8.87,0,0,0-5.11-8,12.7,12.7,0,0,0-5.56-.8H191c-4.73,0-9.47,0-14.21,0a9,9,0,0,0-7.6,4,10.58,10.58,0,0,0-1.42,6.1v16c0,4.44-.82,9.74,2.8,13.08,3.46,3.2,8.85,2.34,13.19,2.34H200.5A.75.75,0,0,0,200.5,351.75Z"/><path d="M177.11,334.71a.6.6,0,0,0,0-1.2.6.6,0,0,0,0,1.2Z"/><path d="M199.54,340.71a.6.6,0,0,0,0-1.2.6.6,0,0,0,0,1.2Z"/><path d="M185.45,323.67a13,13,0,0,0-7.89,7.84,12.53,12.53,0,0,0,1.92,11.9,11.12,11.12,0,0,0,5.43,3.13,16.4,16.4,0,0,0,6.79,1c3.86-.45,6.7-3.5,8-7a13.2,13.2,0,0,0-1.77-12.65c-.47-.6-1.32.25-.85.85,4,5.18,2.68,15.22-4.23,17.35a11.14,11.14,0,0,1-6.08-.27,15.78,15.78,0,0,1-5.22-2.12c-3.1-2.25-4-6.88-3.25-10.44a11.74,11.74,0,0,1,7.46-8.46c.72-.26.41-1.42-.32-1.15Z"/><path d="M192.76,326.37l-6.8.81.58.76s-.16,0,0,0a1.46,1.46,0,0,0,.19-.07c.19-.08.4-.13.58-.22a1.11,1.11,0,0,0,.66-1c.05-.42-.41-.64-.76-.58a13.51,13.51,0,0,1-5.59-.19c-.75-.18-1.07,1-.32,1.16a15.21,15.21,0,0,0,6.23.19l-.76-.58c0-.2,0-.11-.21,0s-.37.12-.54.2a1.21,1.21,0,0,0-.68.8c-.06.34.16.81.58.76l6.8-.81c.76-.09.77-1.3,0-1.2Z"/><path d="M194.14,328.6a12.62,12.62,0,0,0,4.55,4.6.61.61,0,0,0,.82-.22.6.6,0,0,0-.21-.82,11.32,11.32,0,0,1-4.13-4.17.6.6,0,0,0-.82-.21.61.61,0,0,0-.21.82Z"/><path d="M183.2,330a1.53,1.53,0,0,0-1-.26,2,2,0,0,0-.63.18l-.17.11a1.27,1.27,0,0,0-.25.21.66.66,0,0,0-.17.43.61.61,0,0,0,.17.42.69.69,0,0,0,.43.18.6.6,0,0,0,.42-.18.49.49,0,0,1,.13-.12l-.12.09a.72.72,0,0,1,.21-.12l-.14.06a1.38,1.38,0,0,1,.27-.08l-.16,0a.94.94,0,0,1,.29,0l-.16,0a1.05,1.05,0,0,1,.24.06l-.15-.06a.72.72,0,0,1,.19.11.66.66,0,0,0,.46.06.63.63,0,0,0,.36-.28.62.62,0,0,0,.06-.46l-.06-.15a.63.63,0,0,0-.22-.21Z"/><path d="M196.05,334.09h0l-.16,0a1,1,0,0,1,.29.08l-.14-.06a1.43,1.43,0,0,1,.27.15l-.13-.09a1,1,0,0,1,.21.21l-.09-.12a1.37,1.37,0,0,1,.13.2.5.5,0,0,0,.15.17.53.53,0,0,0,.21.11.49.49,0,0,0,.24,0,.44.44,0,0,0,.22-.07.58.58,0,0,0,.27-.36l0-.16a.53.53,0,0,0-.09-.3,1.6,1.6,0,0,0-.25-.37,2.37,2.37,0,0,0-.34-.29,1.79,1.79,0,0,0-.39-.2,1.71,1.71,0,0,0-.45-.09.37.37,0,0,0-.23.05.39.39,0,0,0-.19.12.64.64,0,0,0-.18.43.62.62,0,0,0,.18.42l.12.09a.53.53,0,0,0,.3.09Z"/><path d="M184.21,334.1h0l0,.16v0l-.06.14v0l-.09.12,0,0-.12.1,0,0-.14.06h0l-.16,0h0l-.16,0h0l-.14-.06h0l-.12-.1v0l-.09-.12h0l-.06-.15h0l0-.16v.19l0-.16a1.21,1.21,0,0,1,0,.18l.06-.14,0,.05.68-.27h0l.14.06,0,0,.12.1,0,0,.09.12,0,0,.06.14a.19.19,0,0,1,0-.07l0,.16v-.07l0,.16s0,0,0-.05l-.06.14a.05.05,0,0,0,0,0,.45.45,0,0,0,.08-.22.65.65,0,0,0,0-.24.74.74,0,0,0-.28-.36l-.14-.06a.58.58,0,0,0-.32,0l-.15.06a.63.63,0,0,0-.21.22.66.66,0,0,0-.09.19,0,0,0,0,1,0,0h0a1.11,1.11,0,0,0,0,.17.61.61,0,0,0,0,.14.7.7,0,0,0,0,.14.78.78,0,0,0,.21.35l0,0,.13.1h0a.25.25,0,0,0,.09,0l.1,0,.16,0A.46.46,0,0,0,184,335a.27.27,0,0,0,.13-.07.52.52,0,0,0,.16-.17l0,0,.08-.18,0-.1v-.05l0-.2v-.1a.51.51,0,0,0,0-.13.39.39,0,0,0-.07-.23l0-.07-.05-.06h0l-.13-.1h0l-.15-.06h0l-.16,0h0a.57.57,0,0,0-.18,0h0l-.15.07a.48.48,0,0,0-.15.11h0a1.46,1.46,0,0,0-.09.13h0l-.06.14h0v0a.31.31,0,0,0,0,.09s0,.05,0,.08a.44.44,0,0,0,.06.23.41.41,0,0,0,.12.2.39.39,0,0,0,.19.12.37.37,0,0,0,.23.05l.16,0a.65.65,0,0,0,.27-.15l.09-.12a.58.58,0,0,0,.08-.31Z"/><path d="M194.07,336.78h0l0,.16v0l0,.16v0l-.06.15v0l-.09.13h0l-.13.09h0l-.14.06h0l-.16,0h0l-.15,0h0l-.14-.06,0,0-.12-.09,0,0-.1-.13,0,0-.06-.15v0l0-.16v0l0-.16s0,0,0,0l.06-.14s0,0,0,0l.09-.12,0,0,.12-.1-.08,0,.14-.06a.59.59,0,0,1-.19.05l.16,0h0l.58.44v0l0,.16v-.12l0,.16,0-.13-.06.14a.75.75,0,0,1,.07-.12l-.09.12a.24.24,0,0,1,.09-.08l-.13.09.1-.06a.5.5,0,0,0,.17-.15.43.43,0,0,0,.11-.21.49.49,0,0,0,0-.24.44.44,0,0,0-.07-.22l-.09-.12a.63.63,0,0,0-.27-.16l-.16,0a.61.61,0,0,0-.3.08l-.08.05a1,1,0,0,0-.33.33l0,.07s0,.07,0,.11a1.17,1.17,0,0,0-.05.11s0,.06,0,.09a.86.86,0,0,0,0,.23v.05a1.62,1.62,0,0,0,0,.2l.06.14a.5.5,0,0,0,.15.17.39.39,0,0,0,.14.08.56.56,0,0,0,.23.05,1.28,1.28,0,0,0,.27-.05,1.09,1.09,0,0,0,.25-.1l0,0a.91.91,0,0,0,.16-.13.88.88,0,0,0,.12-.15,1.22,1.22,0,0,0,.07-.17v0h0a.88.88,0,0,0,0-.16v0a1.11,1.11,0,0,0,0-.17h0a.77.77,0,0,0-.07-.16.81.81,0,0,0-.25-.27h0a.69.69,0,0,0-.15-.07h0l-.17,0h0a.66.66,0,0,0-.33.09.49.49,0,0,0-.14.11.58.58,0,0,0-.1.12h0a.69.69,0,0,0-.07.15.87.87,0,0,0,0,.36.49.49,0,0,0,.11.2.44.44,0,0,0,.17.16.57.57,0,0,0,.22.07.65.65,0,0,0,.24,0l.15-.06a.63.63,0,0,0,.21-.22l.06-.14a.58.58,0,0,0,0-.32Z"/><path d="M186.24,338a2.41,2.41,0,0,0,1.08.94,2.86,2.86,0,0,0,.82.23,2.56,2.56,0,0,0,.73,0,.6.6,0,0,0,.36-.28.58.58,0,0,0,.06-.46.61.61,0,0,0-.73-.42l-.12,0,.16,0a1.93,1.93,0,0,1-.48,0l.16,0a1.69,1.69,0,0,1-.49-.13l.15.06-.26-.13-.11-.07s0,0,0,0,.12.1,0,0l-.19-.19s-.13-.17,0,0l-.08-.12a.6.6,0,0,0-1,.61Z"/><path d="M181.64,339.73c2.73,2.75,6.66,3.32,10.33,3.79l-.3-1.11c-1.24.67-2.77,1.4-4.19.85a6.44,6.44,0,0,1-2.84-2.63c-.43-.64-1.47,0-1,.61a7.7,7.7,0,0,0,3.57,3.18c1.73.64,3.58-.15,5.1-1,.58-.31.24-1.05-.3-1.12-3.34-.42-7-.93-9.48-3.44-.54-.55-1.39.3-.85.85Z"/><path d="M177.65,332.65a1.1,1.1,0,0,0-1.31-.18,1.3,1.3,0,0,0-.67,1.12,2.47,2.47,0,0,0,.18,1.07,3.1,3.1,0,0,0,.67,1,.6.6,0,0,0,.85-.85l-.14-.15c-.06-.07,0,0,0,0l-.06-.09a2.33,2.33,0,0,1-.2-.34v0l0-.08-.06-.19c0-.06,0-.12,0-.19s0,.11,0,0v-.1a.45.45,0,0,1,0-.2s0,.16,0,0a.31.31,0,0,1,0-.08.43.43,0,0,0,0-.05l0,.07a.13.13,0,0,0,0-.07c0-.07-.09.09,0,0s.06,0,0,0l.06,0c.1-.06,0,0,0,0s.07,0,.08,0-.13,0-.05,0h0c-.11,0,0,0,0,0l-.08,0,0,0s-.13-.12,0,0a.6.6,0,0,0,.85,0,.62.62,0,0,0,0-.85Z"/><path d="M199.65,339.3c.06,0,.09.07,0,0l.1.05.09.06c.09,0-.07-.07,0,0l.14.14.05.06-.05-.07a.28.28,0,0,0,.06.09.47.47,0,0,1,.05.1l0,0c0,.06,0,.05,0,0a1.39,1.39,0,0,0,.06.19s0,.07,0,.09,0-.12,0-.05v0a.45.45,0,0,1,0,.11.13.13,0,0,0,0,.06s0,0,0-.07a1.17,1.17,0,0,0,0,.2c0,.13,0-.06,0,0l0,.08-.06.1c-.07.11.09-.1,0,0l-.15.15c-.08.08.08-.05,0,0l-.1.06-.08.05-.06,0,.07,0-.21.07h0c-.06,0,0,0,.05,0h-.11a.62.62,0,0,0-.6.6.6.6,0,0,0,.6.6,1.94,1.94,0,0,0,.58-3.8.59.59,0,0,0-.74.42.6.6,0,0,0,.42.73Z"/><path d="M187.8,324a8.59,8.59,0,0,1,5.53-.09,5.68,5.68,0,0,1,3.32,3,.61.61,0,0,0,.73.42.6.6,0,0,0,.42-.74,6.94,6.94,0,0,0-3.89-3.76,9.53,9.53,0,0,0-6.43,0c-.73.23-.42,1.39.32,1.15Z"/><path d="M192,322.23a15.73,15.73,0,0,1,.43-2c.12-.43.23-1.07.65-1.32a3.93,3.93,0,0,1,1.67-.29,5,5,0,0,1,1.89.22,2.19,2.19,0,0,1,1.62,2.16,4.26,4.26,0,0,1-.63,1.65c-.22.36-.5.88-1,.82a.6.6,0,0,0-.6.6.62.62,0,0,0,.6.6c1.23.15,2-1.24,2.42-2.18a3.37,3.37,0,0,0-.21-3.48,4.24,4.24,0,0,0-3-1.56,8.11,8.11,0,0,0-2,.07,2.87,2.87,0,0,0-1.67.61,3.76,3.76,0,0,0-.86,1.78,19.31,19.31,0,0,0-.47,2.36.6.6,0,0,0,.6.6.61.61,0,0,0,.6-.6Z"/><path d="M192.5,321.18a5.4,5.4,0,0,0,5-.28.62.62,0,0,0,.22-.83.61.61,0,0,0-.82-.21,4.16,4.16,0,0,1-3.8.28.62.62,0,0,0-.82.22.6.6,0,0,0,.22.82Z"/><text class="cls-7" transform="translate(219.82 338.71)"><tspan class="cls-8">T</tspan><tspan x="8" y="0">oday</tspan><tspan class="cls-9" x="42.7" y="0"></tspan><tspan x="45.97" y="0">s pic!</tspan><tspan class="cls-9" x="83.31" y="0"> </tspan><tspan x="87.48" y="0">Thanks for the fun time!</tspan></text><path d="M200.5,189c-7.95,0-15.91.11-23.86,0a7.36,7.36,0,0,1-7.24-5.76,20.81,20.81,0,0,1-.15-4.18V163.29c0-1.73,0-3.45,0-5.17a7.46,7.46,0,0,1,4.22-7,11.58,11.58,0,0,1,5.09-.66h21.21a7.72,7.72,0,0,1,6.58,3c1.28,1.74,1.4,3.68,1.4,5.74v21.41c0,2.22-.32,4.31-1.9,6A7.35,7.35,0,0,1,200.5,189a.75.75,0,0,0,0,1.5,8.87,8.87,0,0,0,8.47-6.53,19.5,19.5,0,0,0,.28-4.83V162.45c0-1.56,0-3.12,0-4.68a8.87,8.87,0,0,0-5.11-8,12.7,12.7,0,0,0-5.56-.8H191c-4.73,0-9.47,0-14.21,0a9,9,0,0,0-7.6,4,10.58,10.58,0,0,0-1.42,6.1v16c0,4.44-.82,9.74,2.8,13.08,3.46,3.2,8.85,2.34,13.19,2.34H200.5A.75.75,0,0,0,200.5,189Z"/><path d="M177.11,171.93a.6.6,0,0,0,0-1.2.6.6,0,0,0,0,1.2Z"/><path d="M199.54,177.93a.6.6,0,0,0,0-1.2.6.6,0,0,0,0,1.2Z"/><path d="M185.45,160.89a13,13,0,0,0-7.89,7.84,12.53,12.53,0,0,0,1.92,11.9,11.2,11.2,0,0,0,5.43,3.13,16.4,16.4,0,0,0,6.79,1c3.86-.45,6.7-3.5,8-7a13.19,13.19,0,0,0-1.77-12.65c-.47-.61-1.32.25-.85.85,4,5.18,2.68,15.22-4.23,17.35a11.14,11.14,0,0,1-6.08-.27,15.78,15.78,0,0,1-5.22-2.12c-3.1-2.25-4-6.88-3.25-10.44a11.74,11.74,0,0,1,7.46-8.46c.72-.26.41-1.42-.32-1.15Z"/><path d="M192.76,163.59l-6.8.81.58.76s-.16,0,0,0a1.46,1.46,0,0,0,.19-.07c.19-.08.4-.13.58-.22a1.11,1.11,0,0,0,.66-1c.05-.42-.41-.64-.76-.58a13.51,13.51,0,0,1-5.59-.19c-.75-.18-1.07,1-.32,1.16a15.21,15.21,0,0,0,6.23.19l-.76-.58c0-.2,0-.11-.21,0s-.37.12-.54.2a1.19,1.19,0,0,0-.68.8c-.06.34.16.81.58.76l6.8-.81c.76-.1.77-1.3,0-1.2Z"/><path d="M194.14,165.82a12.52,12.52,0,0,0,4.55,4.59.6.6,0,1,0,.61-1,11.39,11.39,0,0,1-4.13-4.17.6.6,0,0,0-.82-.21.61.61,0,0,0-.21.82Z"/><path d="M183.2,167.22a1.53,1.53,0,0,0-1-.26,2,2,0,0,0-.63.18l-.17.1a1.79,1.79,0,0,0-.25.22.66.66,0,0,0-.17.42.61.61,0,0,0,.17.43.63.63,0,0,0,.43.17.55.55,0,0,0,.42-.17.49.49,0,0,1,.13-.12l-.12.09a.72.72,0,0,1,.21-.12l-.14.06a1.38,1.38,0,0,1,.27-.08l-.16,0a.94.94,0,0,1,.29,0l-.16,0,.24.07-.15-.06.19.1a.57.57,0,0,0,.46.06.58.58,0,0,0,.36-.27.62.62,0,0,0,.06-.46l-.06-.15a.63.63,0,0,0-.22-.21Z"/><path d="M196.05,171.31h0l-.16,0a1,1,0,0,1,.29.08l-.14-.06a1.43,1.43,0,0,1,.27.15l-.13-.09a1,1,0,0,1,.21.21l-.09-.12a1.37,1.37,0,0,1,.13.2.5.5,0,0,0,.15.17.53.53,0,0,0,.21.11.49.49,0,0,0,.24,0,.57.57,0,0,0,.22-.07.6.6,0,0,0,.27-.36l0-.16a.53.53,0,0,0-.09-.3,1.6,1.6,0,0,0-.25-.37,2.37,2.37,0,0,0-.34-.29,1.79,1.79,0,0,0-.39-.2,1.39,1.39,0,0,0-.45-.09.37.37,0,0,0-.23,0,.39.39,0,0,0-.19.12.64.64,0,0,0-.18.43.62.62,0,0,0,.18.42l.12.09a.53.53,0,0,0,.3.09Z"/><path d="M184.21,171.32h0l0,.16s0,0,0,0l-.06.14s0,0,0,0l-.09.12,0,0-.12.1,0,0-.14.06h0l-.16,0h0l-.16,0h0l-.14-.06h0l-.12-.1v0l-.09-.12h0l-.06-.15h0l0-.16v.19l0-.16a1.21,1.21,0,0,1,0,.18l.06-.14,0,0,.68-.27h0l.14.06,0,0,.12.1,0-.05.09.12,0-.05.06.14a.19.19,0,0,1,0-.07l0,.16v-.07l0,.16s0,0,0-.05l-.06.14a.08.08,0,0,0,0,0,.45.45,0,0,0,.08-.22.65.65,0,0,0,0-.24.74.74,0,0,0-.28-.36l-.14-.06a.58.58,0,0,0-.32,0l-.15.06a.56.56,0,0,0-.21.22.66.66,0,0,0-.09.19,0,0,0,0,1,0,0h0a1.11,1.11,0,0,0,0,.17.61.61,0,0,0,0,.14.7.7,0,0,0,0,.14.84.84,0,0,0,.21.35s0,0,0,0l.13.1h0a.25.25,0,0,0,.09,0l.1,0,.16,0a.37.37,0,0,0,.23,0,.27.27,0,0,0,.13-.07.52.52,0,0,0,.16-.17l0-.05.08-.18,0-.1v0l0-.2v-.1a.51.51,0,0,0,0-.13.39.39,0,0,0-.07-.23l0-.07a.22.22,0,0,0-.05-.06h0l-.13-.1h0l-.15-.06h0l-.16,0h0l-.18,0h0l-.15.06-.15.11h0a1.46,1.46,0,0,0-.09.13h0l-.06.14h0v0a.28.28,0,0,0,0,.08s0,.06,0,.09a.44.44,0,0,0,.06.23.41.41,0,0,0,.12.2.39.39,0,0,0,.19.12.37.37,0,0,0,.23,0l.16,0a.65.65,0,0,0,.27-.15l.09-.12a.58.58,0,0,0,.08-.31Z"/><path d="M194.07,174h0l0,.16v0l0,.16v0l-.06.15v0l-.09.13h0l-.13.09h0l-.14.06h0l-.16,0s0,0,0,0l-.15,0,0,0-.14-.06,0,0-.12-.09,0,0-.1-.12,0,0-.06-.15v0l0-.16v0l0-.16s0,0,0,0l.06-.14s0,0,0,.05l.09-.12,0,0,.12-.1-.08.05.14-.06-.19.05.16,0h0l.58.44v0l0,.16v-.12l0,.15,0-.12-.06.14a.75.75,0,0,1,.07-.12l-.09.12a.38.38,0,0,1,.09-.09l-.13.1.1-.06a.5.5,0,0,0,.17-.15.43.43,0,0,0,.11-.21.49.49,0,0,0,0-.24.44.44,0,0,0-.07-.22l-.09-.12a.63.63,0,0,0-.27-.16l-.16,0a.61.61,0,0,0-.3.08l-.08,0a1.24,1.24,0,0,0-.18.14,1.19,1.19,0,0,0-.15.18l0,.08s0,.07,0,.11a1.17,1.17,0,0,0-.05.11s0,.06,0,.09a.86.86,0,0,0,0,.23v.05a1.62,1.62,0,0,0,0,.2l.06.14a.5.5,0,0,0,.15.17.37.37,0,0,0,.14.07.44.44,0,0,0,.23.06,2.56,2.56,0,0,0,.27,0,1.09,1.09,0,0,0,.25-.1l0,0a.91.91,0,0,0,.16-.13,1,1,0,0,0,.12-.16.77.77,0,0,0,.07-.16v0h0a1,1,0,0,0,0-.16v0a1,1,0,0,0,0-.17h0a.77.77,0,0,0-.07-.16.81.81,0,0,0-.25-.27h0a.69.69,0,0,0-.15-.07h0l-.17,0h0a.66.66,0,0,0-.33.09.49.49,0,0,0-.14.11.58.58,0,0,0-.1.12h0a.69.69,0,0,0-.07.15.87.87,0,0,0,0,.36.56.56,0,0,0,.11.2.44.44,0,0,0,.17.16.57.57,0,0,0,.22.07.65.65,0,0,0,.24,0l.15-.06a.63.63,0,0,0,.21-.22l.06-.14a.58.58,0,0,0,0-.32Z"/><path d="M186.24,175.17a2.41,2.41,0,0,0,1.08.94,2.62,2.62,0,0,0,1.55.19.6.6,0,0,0,.36-.28.58.58,0,0,0,.06-.46.61.61,0,0,0-.73-.42l-.12,0,.16,0a2.57,2.57,0,0,1-.48,0l.16,0a2.09,2.09,0,0,1-.49-.13l.15.06a2.1,2.1,0,0,1-.26-.13l-.11-.07s0,0,0,0,.12.1,0,0a1.07,1.07,0,0,1-.19-.18s-.13-.18,0,0a.83.83,0,0,0-.08-.12.6.6,0,0,0-1,.61Z"/><path d="M181.64,177c2.73,2.75,6.66,3.32,10.33,3.79l-.3-1.12c-1.24.68-2.77,1.4-4.19.86a6.44,6.44,0,0,1-2.84-2.63c-.43-.64-1.47,0-1,.61a7.7,7.7,0,0,0,3.57,3.18c1.73.64,3.58-.15,5.1-1,.58-.31.24-1-.3-1.12-3.34-.42-7-.93-9.48-3.44-.54-.55-1.39.3-.85.85Z"/><path d="M177.65,169.87a1.09,1.09,0,0,0-1.31-.18,1.3,1.3,0,0,0-.67,1.12,2.47,2.47,0,0,0,.18,1.07,3.1,3.1,0,0,0,.67,1,.6.6,0,0,0,.85-.85l-.14-.15c-.06-.07,0,0,0,0l-.06-.09a3,3,0,0,1-.2-.34c-.05-.1,0,.09,0,0l0-.08-.06-.19c0-.06,0-.13,0-.19s0,.11,0,0V171a.41.41,0,0,1,0-.19s0,.16,0,0a.31.31,0,0,1,0-.08.43.43,0,0,0,0-.05l0,.07a.13.13,0,0,0,0-.07c0-.07-.09.09,0,0s.06,0,0,0l.06,0c.1-.06,0,0,0,0l.08,0c-.1,0-.13,0-.05,0h0c-.11,0,0,0,0,0l-.08,0,0,0s-.13-.12,0,0a.6.6,0,0,0,.85,0,.62.62,0,0,0,0-.85Z"/><path d="M199.65,176.52c.06,0,.09.07,0,0l.1,0,.09.05c.09.06-.07-.06,0,0a.93.93,0,0,1,.14.14l.05.05-.05-.06a.28.28,0,0,0,.06.09.47.47,0,0,1,.05.1l0,0,0,0a1.39,1.39,0,0,0,.06.19s0,.07,0,.09,0-.12,0,0v0a.45.45,0,0,1,0,.11.13.13,0,0,0,0,.06s0,0,0-.07,0,.14,0,.2,0-.06,0,0l0,.08-.06.1c-.07.11.09-.1,0,0l-.15.16c-.08.08.08-.05,0,0l-.1.06-.08.05-.06,0,.07,0-.21.07h-.1a.62.62,0,0,0-.6.6.6.6,0,0,0,.6.6,1.94,1.94,0,0,0,.58-3.8.6.6,0,0,0-.74.41.61.61,0,0,0,.42.74Z"/><path d="M187.8,161.26a8.52,8.52,0,0,1,5.53-.09,5.68,5.68,0,0,1,3.32,3,.61.61,0,0,0,.73.42.6.6,0,0,0,.42-.74,6.94,6.94,0,0,0-3.89-3.76,9.53,9.53,0,0,0-6.43,0c-.73.23-.42,1.39.32,1.15Z"/><path d="M192,159.45a15.73,15.73,0,0,1,.43-2c.12-.44.23-1.07.65-1.32a3.93,3.93,0,0,1,1.67-.29,5.24,5.24,0,0,1,1.89.21,2.21,2.21,0,0,1,1.62,2.17,4.26,4.26,0,0,1-.63,1.65c-.22.36-.5.88-1,.82a.6.6,0,0,0-.6.6.62.62,0,0,0,.6.6c1.23.15,2-1.24,2.42-2.18a3.37,3.37,0,0,0-.21-3.48,4.24,4.24,0,0,0-3-1.56,8.11,8.11,0,0,0-2,.07,2.87,2.87,0,0,0-1.67.61,3.71,3.71,0,0,0-.86,1.78,18.59,18.59,0,0,0-.47,2.36.6.6,0,0,0,.6.6.61.61,0,0,0,.6-.6Z"/><path d="M192.5,158.4a5.43,5.43,0,0,0,5-.28.62.62,0,0,0,.22-.83.61.61,0,0,0-.82-.21,4.19,4.19,0,0,1-3.8.28.62.62,0,0,0-.82.22.6.6,0,0,0,.22.82Z"/><text class="cls-7" transform="translate(219.81 175.91)">Do you have time for lunch today?</text><path d="M200.5,243.23c-7.95,0-15.91.11-23.86,0a7.36,7.36,0,0,1-7.24-5.76,20.81,20.81,0,0,1-.15-4.18V217.55c0-1.73,0-3.45,0-5.17a7.46,7.46,0,0,1,4.22-7,11.58,11.58,0,0,1,5.09-.66h21.21a7.72,7.72,0,0,1,6.58,3c1.28,1.74,1.4,3.68,1.4,5.74v21.41c0,2.22-.32,4.31-1.9,6a7.35,7.35,0,0,1-5.35,2.36.75.75,0,0,0,0,1.5A8.87,8.87,0,0,0,209,238.2a19.5,19.5,0,0,0,.28-4.83V216.71c0-1.56,0-3.12,0-4.68a8.87,8.87,0,0,0-5.11-8,12.7,12.7,0,0,0-5.56-.8H191c-4.73,0-9.47,0-14.21,0a9,9,0,0,0-7.6,4,10.58,10.58,0,0,0-1.42,6.1v16c0,4.44-.82,9.74,2.8,13.08,3.46,3.2,8.85,2.34,13.19,2.34H200.5A.75.75,0,0,0,200.5,243.23Z"/><path d="M180.9,219.55a55.22,55.22,0,0,0,.42,9.53c.2,1.52.46,3,.79,4.52.25,1.17.39,2.87,1.17,3.82s2.43.64,3.56.62a32,32,0,0,0,4.59-.14c1.4-.23,1.6-1.39,1.89-2.6.37-1.56.69-3.13,1-4.71a96.25,96.25,0,0,0,1.32-10.72c0-.77-1.15-.76-1.2,0a90.87,90.87,0,0,1-1.28,10.4c-.3,1.69-.66,3.37-1.06,5-.12.52-.14,1.15-.72,1.39a3.55,3.55,0,0,1-1.13.07l-2.68,0c-.83,0-1.67.08-2.5.06-.61,0-.82-.12-1.07-.71a8.81,8.81,0,0,1-.33-1.22q-.61-2.49-1-5a53.78,53.78,0,0,1-.54-10.38c0-.77-1.17-.77-1.2,0Z"/><path d="M186.68,224.83l-.86,4.6a.61.61,0,0,0,.88.68,7.46,7.46,0,0,1,2-.56.6.6,0,0,0-.32-1.16,9,9,0,0,0-2.32.68l.89.68.86-4.6a.62.62,0,0,0-.42-.74.61.61,0,0,0-.74.42Z"/><path d="M185.76,233.44l2.84-.88,1.42-.45.66-.2a1.4,1.4,0,0,0,.29-.09c.12-.08.08.06,0-.06l-.09-.73a3.23,3.23,0,0,1-1.56,1.34c-.53.17-1.08.28-1.33-.23a.6.6,0,0,0-1,.61,2.06,2.06,0,0,0,2.53.83,4.55,4.55,0,0,0,2.44-1.94.62.62,0,0,0-.1-.73c-.38-.43-.94-.31-1.42-.16l-1.64.51-3.28,1a.6.6,0,0,0,.32,1.15Z"/><path d="M184.67,222.93a1.29,1.29,0,0,1,0-.19l0,.16a1.61,1.61,0,0,1,0-.31l0,.16a1.11,1.11,0,0,1,.08-.3l-.06.14s0,0,0-.05h-1a1.09,1.09,0,0,1,.08.15l-.06-.15a.83.83,0,0,1,.06.21l0-.16a1.55,1.55,0,0,1,0,.22l0-.16a.76.76,0,0,1-.06.2l.06-.14,0,.09a.62.62,0,0,0-.07.46.63.63,0,0,0,.28.36.62.62,0,0,0,.46.06.63.63,0,0,0,.36-.28,1,1,0,0,0,.11-.23.56.56,0,0,0,0-.12,2.34,2.34,0,0,0,0-.26v-.13a2.6,2.6,0,0,0,0-.26l0-.11a1.14,1.14,0,0,0-.17-.35.56.56,0,0,0-.21-.22.67.67,0,0,0-.3-.08.68.68,0,0,0-.31.08.56.56,0,0,0-.21.22,1.51,1.51,0,0,0-.14.35,2.08,2.08,0,0,0-.06.36,1.62,1.62,0,0,0,0,.22,1.69,1.69,0,0,0,.07.38.65.65,0,0,0,.27.36.62.62,0,0,0,.23.07.59.59,0,0,0,.23,0,.6.6,0,0,0,.36-.28.58.58,0,0,0,.06-.46Z"/><path d="M191.06,222.94l.08-.52-.16.26h0l-.12.09,0,0-.14.06h0l-.16,0h0l-.16,0h.06l-.14-.06.07,0-.12-.09.05.06-.09-.13,0,.07-.06-.14a.64.64,0,0,1,0,.07l0-.16a.21.21,0,0,1,0,.11l0-.16a1.09,1.09,0,0,1-.05.17l.06-.15a1.28,1.28,0,0,1-.11.2.57.57,0,0,0-.07.22.49.49,0,0,0,0,.24.53.53,0,0,0,.11.21.5.5,0,0,0,.17.15.62.62,0,0,0,.46.06.66.66,0,0,0,.36-.27l.09-.17a1.17,1.17,0,0,0,.12-.31,1.11,1.11,0,0,0,0-.48.68.68,0,0,0-.11-.25.91.91,0,0,0-.13-.16l-.16-.13s0,0-.06,0a.77.77,0,0,0-.19-.08.85.85,0,0,0-.42,0l-.16.07-.09.06-.06.05-.1.13-.06.14a.09.09,0,0,1,0,.05l-.07.47a.39.39,0,0,0,0,.24.44.44,0,0,0,.07.22.5.5,0,0,0,.15.17.53.53,0,0,0,.21.11l.16,0a.61.61,0,0,0,.3-.08l.12-.1a.54.54,0,0,0,.16-.26Z"/><path d="M184.16,218.71a3,3,0,0,0-.84.4,2.72,2.72,0,0,0-.42.34,3.44,3.44,0,0,0-.35.41.67.67,0,0,0-.06.46.63.63,0,0,0,.28.36.62.62,0,0,0,.46.06l.14-.06a.56.56,0,0,0,.22-.21l0,0-.09.13a2.24,2.24,0,0,1,.43-.44l-.12.09a2.82,2.82,0,0,1,.53-.31l-.14.06.26-.09a.59.59,0,0,0,.36-.28.57.57,0,0,0,.06-.46.6.6,0,0,0-.27-.36.69.69,0,0,0-.47-.06Z"/><path d="M190.5,219.75l1.23.36a.59.59,0,0,0,.73-.42.57.57,0,0,0-.06-.46.61.61,0,0,0-.35-.28l-1.23-.36a.62.62,0,0,0-.46.07.65.65,0,0,0-.28.35.69.69,0,0,0,.06.47.65.65,0,0,0,.36.27Z"/><path d="M187.66,215.65a17,17,0,0,1-2.88,2.1l.88.36a1.76,1.76,0,0,1-.15-1c.06-.39-.27-.93-.74-.74a6.4,6.4,0,0,0-3,2.49c-.42.66.62,1.26,1,.61a5,5,0,0,1,2.26-1.94l-.74-.74a3,3,0,0,0,.15,1.65.61.61,0,0,0,.88.36,18.48,18.48,0,0,0,3.13-2.29c.57-.53-.28-1.37-.85-.85Z"/><path d="M181.36,225.45a1.07,1.07,0,0,0-1.73.61,4.37,4.37,0,0,0,0,1.87,5.25,5.25,0,0,0,1.64,3.09.61.61,0,0,0,.84,0,.6.6,0,0,0,0-.85,4.15,4.15,0,0,1-1.21-2,3.6,3.6,0,0,1-.14-1.14,3.67,3.67,0,0,1,0-.52s0-.19.06-.19l0,0c-.09-.06.07.2-.26-.07a.63.63,0,0,0,.85,0,.6.6,0,0,0,0-.85Z"/><path d="M195.38,226.44a.4.4,0,0,1-.29.17H195c.06,0,.07,0,0,0l-.08-.06a.05.05,0,0,1,0,0s0,0,0,0,0,0,0,0,0,0,0,0v.12l0,.27a4.2,4.2,0,0,1-.09.53c0,.21-.1.43-.16.64a5.87,5.87,0,0,1-.44,1.07l-.14.25-.09.15,0,0-.08.09s0,0,0,0,0,0,0,0,.26.09.15,0a.6.6,0,0,0-.61,1c.68.44,1.37-.17,1.7-.74a8.28,8.28,0,0,0,.77-1.87,7.89,7.89,0,0,0,.18-1,2.36,2.36,0,0,0,0-1,1,1,0,0,0-1.76-.37.61.61,0,0,0,.22.83.61.61,0,0,0,.82-.22Z"/><path d="M180.35,214.11l-2.16,2.79a3.8,3.8,0,0,0-1.05,2.82,13.49,13.49,0,0,0,1.24,3.15l1.45,3.36c.3.7,1.34.09,1-.61l-1.22-2.85a22.94,22.94,0,0,1-1.26-3c-.27-1,.49-1.81,1.05-2.54l2-2.54c.47-.61-.57-1.2-1-.6Z"/><path d="M197.81,218.25c.56.27.45.94.28,1.44-.24.73-.58,1.44-.89,2.15q-.94,2.11-2,4.19c-.35.69.68,1.29,1,.6.85-1.66,1.65-3.36,2.38-5.08.55-1.29,1.57-3.48-.2-4.34-.7-.33-1.31.7-.61,1Z"/><path d="M187,212c.33-.3.72-.69,1.21-.61a4.26,4.26,0,0,1,1.2.57c.86.47,1.71,1,2.55,1.46,1.71,1,3.39,2.11,5,3.26.63.45,1.23-.59.6-1-1.9-1.34-3.87-2.6-5.89-3.77a18.93,18.93,0,0,0-2.91-1.56,2.56,2.56,0,0,0-2.63.84c-.58.52.27,1.36.85.85Z"/><text class="cls-7" transform="translate(219.82 230.19)"><tspan class="cls-10">Y</tspan><tspan x="9.2" y="0">es!</tspan></text><path d="M193,266.86a8.64,8.64,0,0,0-2.12-1.18,5.77,5.77,0,0,0-2.61-.19c-1.48.17-3.2.69-4.54-.21-.65-.42-1.25.62-.61,1,1.33.88,2.94.69,4.44.47a5,5,0,0,1,4.83,1.11c.63.45,1.23-.59.61-1Z"/><path d="M183.1,267.41a13.36,13.36,0,0,1-6.22-.32.6.6,0,0,0-.59,1c.88.94,1.73,1.92,2.67,2.8a8.21,8.21,0,0,0,3,1.8,18.52,18.52,0,0,0,7.64,1.3c.77-.06.77-1.27,0-1.2a17.32,17.32,0,0,1-7.11-1.19,7.19,7.19,0,0,1-2.87-1.71c-.86-.85-1.67-1.76-2.5-2.65l-.58,1a14.61,14.61,0,0,0,6.86.32c.76-.14.43-1.3-.32-1.15Z"/><path d="M190.57,273.11a4.32,4.32,0,0,0,1.38,3.94.6.6,0,1,0,.84-.85c-.1-.09-.21-.19-.31-.3l-.14-.18h0l-.06-.08c-.08-.12-.16-.24-.23-.37a2,2,0,0,0-.1-.21h0s0-.08,0-.12-.09-.27-.13-.41,0-.13,0-.2,0-.07,0-.1c0,.13,0,0,0,0s0-.29,0-.43,0-.14,0-.21,0-.08,0-.12,0,.14,0,0a.63.63,0,0,0-.42-.74.61.61,0,0,0-.74.42Z"/><path d="M191.84,279.43a3.4,3.4,0,0,1,1.69-1.1,2.91,2.91,0,0,1,1-.13h.18c.08,0,.09,0,0,0a.13.13,0,0,1-.07-.05c0-.05,0,0,0,0l0,.12c0,.11,0,.22.05.33a3.92,3.92,0,0,1-.15,2.18,1.62,1.62,0,0,1-.59.7,1.05,1.05,0,0,1-.83.15.6.6,0,1,0-.32,1.16,2.38,2.38,0,0,0,2.26-.68,3.54,3.54,0,0,0,.9-2.27,8.05,8.05,0,0,0-.09-1.39,1.92,1.92,0,0,0-.4-1.16,1.58,1.58,0,0,0-1.21-.3,4.46,4.46,0,0,0-1.15.19,4.54,4.54,0,0,0-2.15,1.39.62.62,0,0,0,0,.85.6.6,0,0,0,.85,0Z"/><path d="M194.47,268.71c1-.57,1.84.49,2.37,1.21s1,1.47,1.56,2.2a6.38,6.38,0,0,1,1.19,2.26,5.14,5.14,0,0,1-.29,2.82c-1.18,3.25-4.26,5.37-4.62,9-.07.77,1.13.76,1.2,0,.43-4.34,5.47-6.9,5-11.54-.21-2-1.7-3.56-2.8-5.1-1-1.35-2.41-2.92-4.19-1.89a.6.6,0,0,0,.61,1Z"/><path d="M180.05,272.09a7.89,7.89,0,0,1,0,4.54c-.42,1.37-1.31,2.88-2.93,2.82a.6.6,0,0,0-.51.9,8.14,8.14,0,0,0,5.14,3.74l-.26-1a13.89,13.89,0,0,1-1.55,1.61,3,3,0,0,1-2,1.07c-.77,0-.77,1.16,0,1.2a3.37,3.37,0,0,0,2.28-.95,14.37,14.37,0,0,0,2.12-2.08.61.61,0,0,0-.27-1,7,7,0,0,1-4.43-3.18l-.52.9c1.89.07,3.18-1.38,3.84-3a8.92,8.92,0,0,0,.21-5.88.6.6,0,0,0-1.15.32Z"/><path d="M177.65,286.91a30,30,0,0,0,3.21,2.86,3.69,3.69,0,0,0,3.69.22c1.43-.58,2.84-1.2,4.26-1.79,1.11-.47,2.46-.85,3.05-2,.36-.69-.68-1.29-1-.61-.49,1-1.9,1.27-2.82,1.65l-3.56,1.5a4.7,4.7,0,0,1-1.64.48,2.66,2.66,0,0,1-1.64-.71c-.94-.76-1.79-1.63-2.67-2.45-.56-.52-1.42.32-.85.85Z"/><path d="M182.26,278.29h0l.16,0h0l.14.06,0,0,.13.1,0,0,.09.12,0,0,.06.14a.06.06,0,0,1,0,0l0,.16v0l-.44.58h0l-.16,0a.06.06,0,0,1,.06,0l-.16,0,0,0-.14-.06,0,0-.12-.09h0a.53.53,0,0,0,.2.13.56.56,0,0,0,.23,0,.59.59,0,0,0,.23,0,.5.5,0,0,0,.19-.13l.1-.12a.61.61,0,0,0,.08-.3l0-.16a.63.63,0,0,0-.16-.27l-.14-.11h0l-.17-.07h0l-.16,0h0l-.1,0h-.11l-.14.06a.44.44,0,0,0-.17.16.26.26,0,0,0-.08.13.46.46,0,0,0-.05.23v0a1.1,1.1,0,0,0,0,.18v0a1.11,1.11,0,0,0,.07.16v0a.79.79,0,0,0,.12.15h0a.71.71,0,0,0,.14.1h0l.16.07h0l.18,0h0a.59.59,0,0,0,.23-.05.62.62,0,0,0,.32-.32.59.59,0,0,0,.05-.23l0-.16a.63.63,0,0,0-.16-.27l-.12-.09a.52.52,0,0,0-.3-.08Z"/><path d="M183.59,276.61l.06,0-.15-.06a2.22,2.22,0,0,1,.42.25l-.12-.1a1.9,1.9,0,0,1,.37.38l-.09-.13a1.92,1.92,0,0,1,.25.44l-.06-.14.06.13a.61.61,0,0,0,.27.36.58.58,0,0,0,.46.06.55.55,0,0,0,.36-.27.64.64,0,0,0,.06-.47,2.56,2.56,0,0,0-.59-1,3.16,3.16,0,0,0-.45-.37,2.93,2.93,0,0,0-.53-.27.58.58,0,0,0-.46.07.6.6,0,0,0-.21.82l.09.12a.61.61,0,0,0,.26.15Z"/><path d="M193.26,285a8.87,8.87,0,0,0-.17,5.82c.23.73,1.39.42,1.15-.32a7.87,7.87,0,0,1,.18-5.18.61.61,0,0,0-.42-.74.62.62,0,0,0-.74.42Z"/><path d="M200.5,297.49c-7.95,0-15.91.11-23.86,0a7.36,7.36,0,0,1-7.24-5.76,20.81,20.81,0,0,1-.15-4.18V271.81c0-1.73,0-3.45,0-5.17a7.46,7.46,0,0,1,4.22-7,11.58,11.58,0,0,1,5.09-.66h21.21a7.72,7.72,0,0,1,6.58,3c1.28,1.74,1.4,3.68,1.4,5.74V289.1c0,2.22-.32,4.31-1.9,6a7.35,7.35,0,0,1-5.35,2.36.75.75,0,0,0,0,1.5,8.87,8.87,0,0,0,8.47-6.53,19.5,19.5,0,0,0,.28-4.83V271c0-1.56,0-3.12,0-4.68a8.87,8.87,0,0,0-5.11-8,12.7,12.7,0,0,0-5.56-.8H191c-4.73,0-9.47,0-14.21,0a9,9,0,0,0-7.6,4,10.58,10.58,0,0,0-1.42,6.1v16c0,4.44-.82,9.74,2.8,13.08,3.46,3.2,8.85,2.34,13.19,2.34H200.5A.75.75,0,0,0,200.5,297.49Z"/><text class="cls-7" transform="translate(219.82 284.45)">Great! How about leaving at 1 PM?</text><text class="cls-7" transform="translate(168.28 106.47)">Hello!<tspan class="cls-9" x="40.91" y="0"> </tspan><tspan x="45.07" y="0">This week</tspan><tspan class="cls-9" x="117.09" y="0"></tspan><tspan x="120.37" y="0">s Pizza mate!</tspan></text><text class="cls-7" transform="translate(168.28 132.19)">@Ken @Satsuki @<tspan class="cls-11" x="138.55" y="0">Y</tspan><tspan x="148.35" y="0">uki</tspan></text></g></svg>